<svg width="827" height="900" viewBox="0 0 827 900" fill="none" xmlns="http://www.w3.org/2000/svg">
<mask id="mask0_1459_34098" style="mask-type:alpha" maskUnits="userSpaceOnUse" x="0" y="0" width="827" height="902">
<rect width="827" height="902" fill="url(#paint0_linear_1459_34098)"/>
</mask>
<g mask="url(#mask0_1459_34098)">
<rect x="-49.6855" y="-0.0811462" width="919.588" height="901.971" fill="url(#paint1_linear_1459_34098)"/>
<path opacity="0.2" fill-rule="evenodd" clip-rule="evenodd" d="M-12.6907 768.004C-11.0691 768.004 -9.75456 766.689 -9.75456 765.068C-9.75456 763.446 -11.0691 762.132 -12.6907 762.132C-14.3122 762.132 -15.6268 763.446 -15.6268 765.068C-15.6268 766.689 -14.3122 768.004 -12.6907 768.004ZM-32.6562 768.004C-31.0346 768.004 -29.7201 766.689 -29.7201 765.068C-29.7201 763.446 -31.0346 762.132 -32.6562 762.132C-34.2777 762.132 -35.5923 763.446 -35.5923 765.068C-35.5923 766.689 -34.2777 768.004 -32.6562 768.004ZM10.211 765.068C10.211 766.689 8.89641 768.004 7.27485 768.004C5.65328 768.004 4.33874 766.689 4.33874 765.068C4.33874 763.446 5.65328 762.132 7.27485 762.132C8.89641 762.132 10.211 763.446 10.211 765.068ZM-32.6562 787.969C-31.0346 787.969 -29.7201 786.655 -29.7201 785.033C-29.7201 783.412 -31.0346 782.097 -32.6562 782.097C-34.2777 782.097 -35.5923 783.412 -35.5923 785.033C-35.5923 786.655 -34.2777 787.969 -32.6562 787.969ZM-9.75456 785.033C-9.75456 786.655 -11.0691 787.969 -12.6907 787.969C-14.3122 787.969 -15.6268 786.655 -15.6268 785.033C-15.6268 783.412 -14.3122 782.097 -12.6907 782.097C-11.0691 782.097 -9.75456 783.412 -9.75456 785.033ZM7.27485 787.969C8.89641 787.969 10.211 786.655 10.211 785.033C10.211 783.412 8.89641 782.097 7.27485 782.097C5.65328 782.097 4.33874 783.412 4.33874 785.033C4.33874 786.655 5.65328 787.969 7.27485 787.969ZM-29.7201 804.999C-29.7201 806.62 -31.0346 807.935 -32.6562 807.935C-34.2777 807.935 -35.5923 806.62 -35.5923 804.999C-35.5923 803.377 -34.2777 802.063 -32.6562 802.063C-31.0346 802.063 -29.7201 803.377 -29.7201 804.999ZM-12.6907 807.935C-11.0691 807.935 -9.75456 806.62 -9.75456 804.999C-9.75456 803.377 -11.0691 802.063 -12.6907 802.063C-14.3122 802.063 -15.6268 803.377 -15.6268 804.999C-15.6268 806.62 -14.3122 807.935 -12.6907 807.935ZM10.211 804.999C10.211 806.62 8.89641 807.935 7.27485 807.935C5.65328 807.935 4.33874 806.62 4.33874 804.999C4.33874 803.377 5.65328 802.063 7.27485 802.063C8.89641 802.063 10.211 803.377 10.211 804.999ZM-32.6562 827.9C-31.0346 827.9 -29.7201 826.586 -29.7201 824.964C-29.7201 823.343 -31.0346 822.028 -32.6562 822.028C-34.2777 822.028 -35.5923 823.343 -35.5923 824.964C-35.5923 826.586 -34.2777 827.9 -32.6562 827.9ZM-9.75456 824.964C-9.75456 826.586 -11.0691 827.9 -12.6907 827.9C-14.3122 827.9 -15.6268 826.586 -15.6268 824.964C-15.6268 823.343 -14.3122 822.028 -12.6907 822.028C-11.0691 822.028 -9.75456 823.343 -9.75456 824.964ZM7.27485 827.9C8.89641 827.9 10.211 826.586 10.211 824.964C10.211 823.343 8.89641 822.028 7.27485 822.028C5.65328 822.028 4.33874 823.343 4.33874 824.964C4.33874 826.586 5.65328 827.9 7.27485 827.9ZM-29.7201 844.93C-29.7201 846.551 -31.0346 847.866 -32.6562 847.866C-34.2777 847.866 -35.5923 846.551 -35.5923 844.93C-35.5923 843.308 -34.2777 841.994 -32.6562 841.994C-31.0346 841.994 -29.7201 843.308 -29.7201 844.93ZM-12.6907 847.866C-11.0691 847.866 -9.75456 846.551 -9.75456 844.93C-9.75456 843.308 -11.0691 841.994 -12.6907 841.994C-14.3122 841.994 -15.6268 843.308 -15.6268 844.93C-15.6268 846.551 -14.3122 847.866 -12.6907 847.866ZM10.211 844.93C10.211 846.551 8.89641 847.866 7.27485 847.866C5.65328 847.866 4.33874 846.551 4.33874 844.93C4.33874 843.308 5.65328 841.994 7.27485 841.994C8.89641 841.994 10.211 843.308 10.211 844.93ZM-32.6562 867.831C-31.0346 867.831 -29.7201 866.517 -29.7201 864.895C-29.7201 863.274 -31.0346 861.959 -32.6562 861.959C-34.2777 861.959 -35.5923 863.274 -35.5923 864.895C-35.5923 866.517 -34.2777 867.831 -32.6562 867.831ZM-9.75456 864.895C-9.75456 866.517 -11.0691 867.831 -12.6907 867.831C-14.3122 867.831 -15.6268 866.517 -15.6268 864.895C-15.6268 863.274 -14.3122 861.959 -12.6907 861.959C-11.0691 861.959 -9.75456 863.274 -9.75456 864.895ZM7.27485 867.831C8.89641 867.831 10.211 866.517 10.211 864.895C10.211 863.274 8.89641 861.959 7.27485 861.959C5.65328 861.959 4.33874 863.274 4.33874 864.895C4.33874 866.517 5.65328 867.831 7.27485 867.831ZM30.1765 844.93C30.1765 846.551 28.8619 847.866 27.2404 847.866C25.6188 847.866 24.3043 846.551 24.3043 844.93C24.3043 843.308 25.6188 841.994 27.2404 841.994C28.8619 841.994 30.1765 843.308 30.1765 844.93ZM47.2059 847.866C48.8274 847.866 50.142 846.551 50.142 844.93C50.142 843.308 48.8274 841.994 47.2059 841.994C45.5843 841.994 44.2698 843.308 44.2698 844.93C44.2698 846.551 45.5843 847.866 47.2059 847.866ZM70.1075 844.93C70.1075 846.551 68.793 847.866 67.1714 847.866C65.5498 847.866 64.2353 846.551 64.2353 844.93C64.2353 843.308 65.5498 841.994 67.1714 841.994C68.793 841.994 70.1075 843.308 70.1075 844.93ZM27.2404 867.831C28.8619 867.831 30.1765 866.517 30.1765 864.895C30.1765 863.274 28.8619 861.959 27.2404 861.959C25.6188 861.959 24.3043 863.274 24.3043 864.895C24.3043 866.517 25.6188 867.831 27.2404 867.831ZM50.142 864.895C50.142 866.517 48.8274 867.831 47.2059 867.831C45.5843 867.831 44.2698 866.517 44.2698 864.895C44.2698 863.274 45.5843 861.959 47.2059 861.959C48.8274 861.959 50.142 863.274 50.142 864.895ZM67.1714 867.831C68.793 867.831 70.1075 866.517 70.1075 864.895C70.1075 863.274 68.793 861.959 67.1714 861.959C65.5498 861.959 64.2353 863.274 64.2353 864.895C64.2353 866.517 65.5498 867.831 67.1714 867.831ZM30.1765 884.861C30.1765 886.482 28.8619 887.797 27.2404 887.797C25.6188 887.797 24.3043 886.482 24.3043 884.861C24.3043 883.239 25.6188 881.925 27.2404 881.925C28.8619 881.925 30.1765 883.239 30.1765 884.861ZM47.2059 887.797C48.8274 887.797 50.142 886.482 50.142 884.861C50.142 883.239 48.8274 881.925 47.2059 881.925C45.5843 881.925 44.2698 883.239 44.2698 884.861C44.2698 886.482 45.5843 887.797 47.2059 887.797ZM70.1075 884.861C70.1075 886.482 68.793 887.797 67.1714 887.797C65.5498 887.797 64.2353 886.482 64.2353 884.861C64.2353 883.239 65.5498 881.925 67.1714 881.925C68.793 881.925 70.1075 883.239 70.1075 884.861ZM-32.6562 887.797C-31.0346 887.797 -29.7201 886.482 -29.7201 884.861C-29.7201 883.239 -31.0346 881.925 -32.6562 881.925C-34.2777 881.925 -35.5923 883.239 -35.5923 884.861C-35.5923 886.482 -34.2777 887.797 -32.6562 887.797ZM-9.75456 884.861C-9.75456 886.482 -11.0691 887.797 -12.6907 887.797C-14.3122 887.797 -15.6268 886.482 -15.6268 884.861C-15.6268 883.239 -14.3122 881.925 -12.6907 881.925C-11.0691 881.925 -9.75456 883.239 -9.75456 884.861ZM7.27485 887.797C8.89641 887.797 10.211 886.482 10.211 884.861C10.211 883.239 8.89641 881.925 7.27485 881.925C5.65328 881.925 4.33874 883.239 4.33874 884.861C4.33874 886.482 5.65328 887.797 7.27485 887.797Z" fill="white"/>
<rect opacity="0.2" x="579.815" y="410.974" width="72.8154" height="72.8154" rx="9" fill="#043A9C"/>
<rect opacity="0.2" x="615.049" y="375.74" width="72.8154" height="72.8154" rx="9" fill="#043A9C"/>
<circle opacity="0.2" cx="-0.359097" cy="496.708" r="10.7444" stroke="white" stroke-width="2"/>
<circle opacity="0.2" cx="229.832" cy="288.832" r="56.3732" fill="#043A9C"/>
<path opacity="0.2" d="M324.862 821.806C336.816 809.025 352.558 800.42 369.77 797.258C386.981 794.095 404.754 796.542 420.471 804.238C436.187 811.934 449.018 824.473 457.074 840.008C465.129 855.544 467.985 873.255 465.219 890.535C462.453 907.815 454.213 923.751 441.71 935.996C429.208 948.241 413.105 956.149 395.771 958.555" stroke="white" stroke-width="2"/>
<circle opacity="0.2" cx="846.414" cy="80.9554" r="92.9554" stroke="white" stroke-width="2" stroke-dasharray="28 0"/>
<g opacity="0.2">
<mask id="path-10-inside-1_1459_34098" fill="white">
<path d="M0.815399 113.84C0.815399 119.827 -0.661194 125.722 -3.48357 131.002C-6.30596 136.283 -10.387 140.785 -15.3653 144.112C-20.3435 147.438 -26.0653 149.485 -32.0237 150.072C-37.9822 150.659 -43.9934 149.767 -49.5249 147.476C-55.0564 145.185 -59.9375 141.565 -63.7358 136.937C-67.5341 132.308 -70.1324 126.815 -71.3004 120.943C-72.4685 115.07 -72.1703 109.001 -70.4323 103.271C-68.6943 97.5417 -65.5701 92.3293 -61.3364 88.0956L-35.5923 113.84H0.815399Z"/>
</mask>
<path d="M0.815399 113.84C0.815399 119.827 -0.661194 125.722 -3.48357 131.002C-6.30596 136.283 -10.387 140.785 -15.3653 144.112C-20.3435 147.438 -26.0653 149.485 -32.0237 150.072C-37.9822 150.659 -43.9934 149.767 -49.5249 147.476C-55.0564 145.185 -59.9375 141.565 -63.7358 136.937C-67.5341 132.308 -70.1324 126.815 -71.3004 120.943C-72.4685 115.07 -72.1703 109.001 -70.4323 103.271C-68.6943 97.5417 -65.5701 92.3293 -61.3364 88.0956L-35.5923 113.84H0.815399Z" stroke="white" stroke-width="4" mask="url(#path-10-inside-1_1459_34098)"/>
</g>
<path opacity="0.2" d="M379.223 719.586C369.513 716.052 360.825 710.177 353.927 702.484C347.03 694.79 342.137 685.513 339.681 675.477C337.225 665.44 337.282 654.952 339.847 644.943C342.413 634.934 347.407 625.711 354.388 618.093C361.368 610.475 370.12 604.696 379.868 601.268C389.616 597.84 400.058 596.869 410.271 598.441C420.484 600.013 430.151 604.079 438.417 610.279C446.683 616.48 453.292 624.623 457.658 633.988L400.713 660.542L379.223 719.586Z" fill="#043A9C"/>
<g opacity="0.2">
<circle cx="630.904" cy="633.53" r="19.5527" stroke="white" stroke-width="2"/>
<circle cx="630.904" cy="633.53" r="7.63387" fill="white"/>
</g>
<g filter="url(#filter0_d_1459_34098)">
<mask id="mask1_1459_34098" style="mask-type:alpha" maskUnits="userSpaceOnUse" x="176" y="650" width="90" height="74">
<path d="M178.158 665.905C179.281 658.159 185.502 652.739 193.285 651.911C199.959 651.202 209.339 650.56 221.42 650.56C232.858 650.56 241.875 651.136 248.466 651.799C256.851 652.643 263.369 658.732 264.258 667.113C264.72 671.474 265.065 676.895 265.065 683.366C265.065 689.83 264.721 695.247 264.259 699.606C263.371 707.993 256.839 714.088 248.447 714.932C248.317 714.945 248.186 714.958 248.054 714.971C246.014 715.173 244.433 723.373 242.449 723.373C240.244 723.523 236.673 715.816 234.117 715.92C230.28 716.077 226.047 716.172 221.42 716.172C209.356 716.172 199.976 715.529 193.298 714.819C185.508 713.991 179.28 708.567 178.157 700.814C177.497 696.262 176.982 690.441 176.982 683.366C176.982 676.284 177.498 670.458 178.158 665.905Z" fill="#08378B"/>
</mask>
<g mask="url(#mask1_1459_34098)">
<path d="M178.158 665.905C179.281 658.159 185.502 652.739 193.285 651.911C199.959 651.202 209.339 650.56 221.42 650.56C232.858 650.56 241.875 651.136 248.466 651.799C256.851 652.643 263.369 658.732 264.258 667.113C264.72 671.474 265.065 676.895 265.065 683.366C265.065 689.83 264.721 695.247 264.259 699.606C263.371 707.993 256.839 714.088 248.447 714.932C248.317 714.945 248.186 714.958 248.054 714.971C246.014 715.173 244.433 723.373 242.449 723.373C240.244 723.523 236.673 715.816 234.117 715.92C230.28 716.077 226.047 716.172 221.42 716.172C209.356 716.172 199.976 715.529 193.298 714.819C185.508 713.991 179.28 708.567 178.157 700.814C177.497 696.262 176.982 690.441 176.982 683.366C176.982 676.284 177.498 670.458 178.158 665.905Z" fill="#023896"/>
<g filter="url(#filter1_f_1459_34098)">
<path d="M230.32 652.406C229.001 644.706 222.768 639.327 215.008 638.416C206.732 637.443 194.283 636.466 177.669 636.466C161.771 636.466 149.686 637.361 141.422 638.29C133.055 639.231 126.523 645.287 125.457 653.639C124.73 659.334 124.132 666.846 124.132 676.151C124.132 685.449 124.729 692.957 125.455 698.65C126.522 707.009 133.068 713.071 141.442 714.012C142.558 714.137 143.744 714.262 144.999 714.384C147.501 714.627 149.44 724.547 151.874 724.547C154.578 724.728 158.959 715.405 162.095 715.532C166.801 715.721 171.993 715.836 177.669 715.836C194.26 715.836 206.712 714.858 214.996 713.885C222.762 712.973 229.003 707.591 230.322 699.884C231.32 694.057 232.18 686.137 232.18 676.151C232.18 666.158 231.319 658.234 230.32 652.406Z" fill="#04358D"/>
</g>
</g>
</g>
<g filter="url(#filter2_b_1459_34098)">
<path d="M215.052 638.313C213.733 630.612 207.5 625.234 199.741 624.322C191.464 623.35 179.015 622.373 162.402 622.373C146.503 622.373 134.418 623.268 126.154 624.197C117.787 625.138 111.256 631.194 110.189 639.546C109.462 645.241 108.864 652.753 108.864 662.058C108.864 671.356 109.461 678.864 110.188 684.557C111.254 692.916 117.801 698.977 126.174 699.918C127.29 700.044 128.476 700.168 129.731 700.29C132.234 700.534 134.173 710.454 136.606 710.454C139.311 710.635 143.691 701.312 146.827 701.438C151.533 701.628 156.725 701.742 162.402 701.742C178.992 701.742 191.444 700.765 199.728 699.792C207.495 698.88 213.735 693.498 215.055 685.79C216.052 679.964 216.913 672.044 216.913 662.058C216.913 652.065 216.051 644.14 215.052 638.313Z" fill="url(#paint2_linear_1459_34098)"/>
<path d="M136.606 710.204H136.615L136.623 710.204C136.888 710.222 137.199 710.124 137.562 709.9C137.923 709.678 138.312 709.344 138.726 708.928C139.502 708.145 140.332 707.102 141.188 706.026C141.245 705.955 141.302 705.883 141.359 705.811C142.27 704.667 143.206 703.506 144.115 702.638C144.57 702.204 145.025 701.836 145.475 701.58C145.924 701.324 146.382 701.17 146.837 701.189C151.54 701.378 156.729 701.492 162.402 701.492C178.982 701.492 191.425 700.515 199.699 699.544C207.367 698.643 213.509 693.335 214.808 685.748C215.803 679.936 216.663 672.029 216.663 662.058C216.663 652.079 215.802 644.169 214.806 638.355C213.507 630.775 207.372 625.471 199.711 624.571C191.445 623.599 179.005 622.623 162.402 622.623C146.512 622.623 134.437 623.517 126.182 624.445C117.922 625.374 111.488 631.347 110.437 639.578C109.711 645.262 109.114 652.763 109.114 662.058C109.114 671.345 109.71 678.842 110.435 684.525C111.486 692.762 117.936 698.741 126.202 699.67C127.317 699.795 128.501 699.92 129.755 700.042C130.149 700.08 130.504 700.305 130.821 700.619C131.14 700.935 131.443 701.363 131.734 701.854C132.309 702.823 132.863 704.085 133.406 705.323L133.423 705.363C133.976 706.623 134.518 707.854 135.071 708.771C135.348 709.229 135.619 709.595 135.885 709.844C136.153 710.094 136.391 710.204 136.606 710.204Z" stroke="url(#paint3_linear_1459_34098)" stroke-width="0.5"/>
</g>
<g filter="url(#filter3_f_1459_34098)">
<circle cx="148.795" cy="664.653" r="4.69777" fill="#4C72B7"/>
</g>
<g filter="url(#filter4_f_1459_34098)">
<circle cx="162.888" cy="664.653" r="4.69777" fill="#4C72B7"/>
</g>
<g filter="url(#filter5_f_1459_34098)">
<circle cx="176.982" cy="664.653" r="4.69777" fill="#4C72B7"/>
</g>
<circle cx="147.621" cy="663.479" r="4.69777" fill="url(#paint4_linear_1459_34098)"/>
<circle cx="161.714" cy="663.479" r="4.69777" fill="url(#paint5_linear_1459_34098)"/>
<circle cx="175.807" cy="663.479" r="4.69777" fill="url(#paint6_linear_1459_34098)"/>
<g filter="url(#filter6_f_1459_34098)">
<rect x="619.746" y="557.779" width="84.5598" height="84.5598" rx="7" fill="#053893"/>
</g>
<g filter="url(#filter7_b_1459_34098)">
<rect x="615.049" y="553.081" width="84.5598" height="84.5598" rx="7" fill="url(#paint7_linear_1459_34098)"/>
</g>
<g filter="url(#filter8_d_1459_34098)">
<path d="M643.411 588.416C644.862 588.416 646.003 588.763 646.835 589.456C647.667 590.15 648.083 591.104 648.083 592.32C648.083 593.536 647.667 594.491 646.835 595.184C646.003 595.878 644.862 596.224 643.411 596.224H640.643V599.616H639.043V588.416H643.411ZM643.363 594.832C644.376 594.832 645.15 594.619 645.683 594.192C646.216 593.755 646.483 593.131 646.483 592.32C646.483 591.51 646.216 590.891 645.683 590.464C645.15 590.027 644.376 589.808 643.363 589.808H640.643V594.832H643.363ZM650.434 588.416H655.154C656.338 588.416 657.388 588.651 658.306 589.12C659.223 589.59 659.932 590.251 660.434 591.104C660.946 591.947 661.202 592.918 661.202 594.016C661.202 595.115 660.946 596.091 660.434 596.944C659.932 597.787 659.223 598.443 658.306 598.912C657.388 599.382 656.338 599.616 655.154 599.616H650.434V588.416ZM655.058 598.224C655.964 598.224 656.759 598.048 657.442 597.696C658.135 597.344 658.668 596.854 659.042 596.224C659.415 595.584 659.602 594.848 659.602 594.016C659.602 593.184 659.415 592.454 659.042 591.824C658.668 591.184 658.135 590.688 657.442 590.336C656.759 589.984 655.964 589.808 655.058 589.808H652.034V598.224H655.058ZM665.252 589.808V593.712H670.868V595.088H665.252V599.616H663.652V588.416H671.556V589.808H665.252Z" fill="white"/>
</g>
<g filter="url(#filter9_b_1459_34098)">
<rect x="160.54" y="191.353" width="69.2921" height="69.2921" rx="7" fill="url(#paint8_linear_1459_34098)"/>
</g>
<g filter="url(#filter10_d_1459_34098)">
<path d="M187.277 229.479C186.367 229.479 185.544 229.28 184.807 228.881C184.079 228.474 183.507 227.919 183.091 227.217C182.675 226.506 182.467 225.709 182.467 224.825C182.467 223.941 182.675 223.148 183.091 222.446C183.507 221.735 184.083 221.181 184.82 220.782C185.557 220.375 186.38 220.171 187.29 220.171C188.001 220.171 188.651 220.292 189.24 220.535C189.829 220.769 190.332 221.12 190.748 221.588L189.903 222.407C189.218 221.688 188.365 221.328 187.342 221.328C186.666 221.328 186.055 221.48 185.509 221.783C184.963 222.086 184.534 222.507 184.222 223.044C183.919 223.573 183.767 224.166 183.767 224.825C183.767 225.484 183.919 226.082 184.222 226.619C184.534 227.148 184.963 227.564 185.509 227.867C186.055 228.17 186.666 228.322 187.342 228.322C188.356 228.322 189.21 227.958 189.903 227.23L190.748 228.049C190.332 228.517 189.825 228.872 189.227 229.115C188.638 229.358 187.988 229.479 187.277 229.479ZM195.216 229.479C194.532 229.479 193.869 229.375 193.227 229.167C192.595 228.95 192.096 228.673 191.732 228.335L192.213 227.321C192.56 227.633 193.002 227.889 193.539 228.088C194.085 228.279 194.644 228.374 195.216 228.374C195.97 228.374 196.534 228.248 196.906 227.997C197.279 227.737 197.465 227.395 197.465 226.97C197.465 226.658 197.361 226.407 197.153 226.216C196.954 226.017 196.703 225.865 196.399 225.761C196.105 225.657 195.684 225.54 195.138 225.41C194.454 225.245 193.899 225.081 193.474 224.916C193.058 224.751 192.699 224.5 192.395 224.162C192.101 223.815 191.953 223.352 191.953 222.771C191.953 222.286 192.079 221.848 192.33 221.458C192.59 221.068 192.98 220.756 193.5 220.522C194.02 220.288 194.666 220.171 195.437 220.171C195.975 220.171 196.503 220.24 197.023 220.379C197.543 220.518 197.99 220.717 198.362 220.977L197.933 222.017C197.552 221.774 197.145 221.592 196.711 221.471C196.278 221.341 195.853 221.276 195.437 221.276C194.701 221.276 194.146 221.41 193.773 221.679C193.409 221.948 193.227 222.294 193.227 222.719C193.227 223.031 193.331 223.287 193.539 223.486C193.747 223.677 194.003 223.828 194.306 223.941C194.618 224.045 195.039 224.158 195.567 224.279C196.252 224.444 196.802 224.608 197.218 224.773C197.634 224.938 197.99 225.189 198.284 225.527C198.588 225.865 198.739 226.32 198.739 226.892C198.739 227.369 198.609 227.806 198.349 228.205C198.089 228.595 197.695 228.907 197.166 229.141C196.638 229.366 195.988 229.479 195.216 229.479ZM208.543 220.275L204.552 229.375H203.265L199.261 220.275H200.665L203.941 227.75L207.243 220.275H208.543Z" fill="white"/>
</g>
<g filter="url(#filter11_f_1459_34098)">
<rect x="254.495" y="259.471" width="318.274" height="378.17" rx="4" fill="#053FA7"/>
</g>
<g filter="url(#filter12_b_1459_34098)">
<rect x="242.75" y="247.726" width="318.274" height="378.17" rx="4" fill="url(#paint9_linear_1459_34098)"/>
<rect x="243.25" y="248.226" width="317.274" height="377.17" rx="3.5" stroke="url(#paint10_linear_1459_34098)"/>
</g>
<circle cx="466.066" cy="312.242" r="14.2418" fill="url(#paint11_linear_1459_34098)"/>
<ellipse cx="466.066" cy="351.011" rx="30.0659" ry="18.989" fill="url(#paint12_linear_1459_34098)"/>
<g opacity="0.5">
<g filter="url(#filter13_b_1459_34098)">
<path d="M211.037 382.786C210.984 378.145 207.537 374.641 202.896 374.571C202.654 374.568 202.407 374.566 202.153 374.566C202.072 374.566 201.992 374.566 201.913 374.566C196.997 374.59 193.424 378.458 193.424 383.374C193.424 383.679 193.426 383.974 193.43 384.262C193.49 388.583 196.781 392.032 201.101 392.166C201.451 392.177 201.801 392.182 202.153 392.182C202.403 392.182 202.648 392.181 202.887 392.177C207.533 392.108 210.985 388.599 211.037 383.953C211.039 383.764 211.041 383.571 211.041 383.374C211.041 383.174 211.039 382.978 211.037 382.786Z" fill="url(#paint13_linear_1459_34098)"/>
<path d="M210.787 382.789C210.736 378.282 207.396 374.889 202.892 374.821C202.652 374.818 202.405 374.816 202.153 374.816C202.073 374.816 201.993 374.816 201.914 374.816C197.146 374.839 193.674 378.585 193.674 383.374C193.674 383.677 193.676 383.972 193.68 384.258C193.738 388.45 196.926 391.786 201.109 391.916C201.456 391.927 201.804 391.932 202.153 391.932C202.402 391.932 202.645 391.931 202.883 391.927C207.392 391.86 210.737 388.463 210.787 383.95C210.789 383.762 210.791 383.57 210.791 383.374C210.791 383.175 210.789 382.98 210.787 382.789Z" stroke="url(#paint14_linear_1459_34098)" stroke-width="0.5"/>
</g>
<g filter="url(#filter14_b_1459_34098)">
<path d="M232.177 382.786C232.124 378.145 228.677 374.641 224.036 374.571C223.794 374.568 223.546 374.566 223.293 374.566C223.212 374.566 223.132 374.566 223.053 374.566C218.137 374.59 214.564 378.458 214.564 383.374C214.564 383.679 214.566 383.974 214.57 384.262C214.63 388.583 217.921 392.032 222.241 392.166C222.591 392.177 222.941 392.182 223.293 392.182C223.543 392.182 223.788 392.181 224.027 392.177C228.672 392.108 232.125 388.599 232.177 383.953C232.179 383.764 232.18 383.571 232.18 383.374C232.18 383.174 232.179 382.978 232.177 382.786Z" fill="url(#paint15_linear_1459_34098)"/>
<path d="M231.927 382.789C231.876 378.282 228.536 374.889 224.032 374.821C223.792 374.818 223.545 374.816 223.293 374.816C223.213 374.816 223.133 374.816 223.054 374.816C218.286 374.839 214.814 378.585 214.814 383.374C214.814 383.677 214.816 383.972 214.82 384.258C214.878 388.45 218.066 391.786 222.248 391.916C222.596 391.927 222.944 391.932 223.293 391.932C223.542 391.932 223.785 391.931 224.023 391.927C228.531 391.86 231.877 388.463 231.927 383.95C231.929 383.762 231.93 383.57 231.93 383.374C231.93 383.175 231.929 382.98 231.927 382.789Z" stroke="url(#paint16_linear_1459_34098)" stroke-width="0.5"/>
</g>
<g filter="url(#filter15_b_1459_34098)">
<path d="M232.177 403.926C232.124 399.285 228.677 395.781 224.036 395.711C223.794 395.708 223.546 395.706 223.293 395.706C223.212 395.706 223.132 395.706 223.053 395.706C218.137 395.73 214.564 399.598 214.564 404.514C214.564 404.819 214.566 405.114 214.57 405.402C214.63 409.723 217.921 413.172 222.241 413.306C222.591 413.317 222.941 413.322 223.293 413.322C223.543 413.322 223.788 413.321 224.027 413.317C228.672 413.248 232.125 409.739 232.177 405.093C232.179 404.904 232.18 404.711 232.18 404.514C232.18 404.314 232.179 404.118 232.177 403.926Z" fill="url(#paint17_linear_1459_34098)"/>
<path d="M231.927 403.929C231.876 399.421 228.536 396.029 224.032 395.961C223.792 395.958 223.545 395.956 223.293 395.956C223.213 395.956 223.133 395.956 223.054 395.956C218.286 395.979 214.814 399.725 214.814 404.514C214.814 404.817 214.816 405.112 214.82 405.398C214.878 409.59 218.066 412.926 222.248 413.056C222.596 413.067 222.944 413.072 223.293 413.072C223.542 413.072 223.785 413.071 224.023 413.067C228.531 413 231.877 409.603 231.927 405.09C231.929 404.902 231.93 404.71 231.93 404.514C231.93 404.315 231.929 404.12 231.927 403.929Z" stroke="url(#paint18_linear_1459_34098)" stroke-width="0.5"/>
</g>
<g filter="url(#filter16_b_1459_34098)">
<path d="M211.037 403.926C210.984 399.285 207.537 395.781 202.896 395.711C202.654 395.708 202.407 395.706 202.153 395.706C202.072 395.706 201.992 395.706 201.913 395.706C196.997 395.73 193.424 399.598 193.424 404.514C193.424 404.819 193.426 405.114 193.43 405.402C193.49 409.723 196.781 413.172 201.101 413.306C201.451 413.317 201.801 413.322 202.153 413.322C202.403 413.322 202.648 413.321 202.887 413.317C207.533 413.248 210.985 409.739 211.037 405.093C211.039 404.904 211.041 404.711 211.041 404.514C211.041 404.314 211.039 404.118 211.037 403.926Z" fill="url(#paint19_linear_1459_34098)"/>
<path d="M210.787 403.929C210.736 399.421 207.396 396.029 202.892 395.961C202.652 395.958 202.405 395.956 202.153 395.956C202.073 395.956 201.993 395.956 201.914 395.956C197.146 395.979 193.674 399.725 193.674 404.514C193.674 404.817 193.676 405.112 193.68 405.398C193.738 409.59 196.926 412.926 201.109 413.056C201.456 413.067 201.804 413.072 202.153 413.072C202.402 413.072 202.645 413.071 202.883 413.067C207.392 413 210.737 409.603 210.787 405.09C210.789 404.902 210.791 404.71 210.791 404.514C210.791 404.315 210.789 404.12 210.787 403.929Z" stroke="url(#paint20_linear_1459_34098)" stroke-width="0.5"/>
</g>
</g>
<g filter="url(#filter17_f_1459_34098)">
<rect x="313.957" y="406.531" width="189.822" height="18.7911" rx="2" fill="#2A5CB5"/>
</g>
<rect x="308.821" y="400.659" width="189.822" height="18.7911" rx="4" fill="url(#paint21_linear_1459_34098)"/>
<g filter="url(#filter18_f_1459_34098)">
<rect x="310.647" y="338.414" width="67.4667" height="18.7911" rx="2" fill="#2A5CB5"/>
</g>
<rect x="308.821" y="332.542" width="67.4667" height="18.7911" rx="4" fill="url(#paint22_linear_1459_34098)"/>
<g filter="url(#filter19_f_1459_34098)">
<rect x="313.957" y="474.649" width="189.822" height="18.7911" rx="2" fill="#2A5CB5"/>
</g>
<rect x="308.821" y="468.777" width="189.822" height="18.7911" rx="4" fill="url(#paint23_linear_1459_34098)"/>
<g filter="url(#filter20_f_1459_34098)">
<rect x="313.957" y="542.767" width="189.822" height="18.7911" rx="2" fill="#2A5CB5"/>
</g>
<rect x="308.821" y="536.894" width="189.822" height="18.7911" rx="4" fill="url(#paint24_linear_1459_34098)"/>
<g filter="url(#filter21_f_1459_34098)">
<path d="M614.902 251.182C613.927 243.284 608.042 237.308 600.154 236.266C594.205 235.481 586.13 234.807 575.932 234.807C566.219 234.807 558.431 235.419 552.572 236.155C544.207 237.207 538.113 243.723 537.327 252.118C536.796 257.796 536.361 265.262 536.361 274.492C536.361 282.729 536.707 289.561 537.16 294.971C537.945 304.367 545.171 311.591 554.526 312.769C561.621 313.663 568.732 314.177 575.932 314.177C586.113 314.177 594.186 313.503 600.137 312.717C608.035 311.675 613.929 305.692 614.904 297.786C615.618 292.003 616.223 284.23 616.223 274.492C616.223 264.745 615.617 256.966 614.902 251.182Z" fill="black" fill-opacity="0.08"/>
</g>
<g filter="url(#filter22_b_1459_34098)">
<path d="M606.681 240.612C605.706 232.715 599.821 226.738 591.933 225.696C585.984 224.911 577.909 224.237 567.711 224.237C557.998 224.237 550.21 224.849 544.351 225.585C535.986 226.637 529.892 233.153 529.106 241.548C528.575 247.226 528.14 254.692 528.14 263.922C528.14 272.159 528.486 278.991 528.939 284.401C529.724 293.797 536.95 301.021 546.305 302.199C553.4 303.093 560.511 303.607 567.711 303.607C577.892 303.607 585.965 302.933 591.916 302.147C599.814 301.105 605.708 295.122 606.683 287.216C607.397 281.433 608.002 273.66 608.002 263.922C608.002 254.175 607.396 246.396 606.681 240.612Z" fill="url(#paint25_linear_1459_34098)"/>
<path d="M606.433 240.642C605.471 232.857 599.675 226.971 591.9 225.944C585.962 225.16 577.898 224.487 567.711 224.487C558.008 224.487 550.231 225.098 544.383 225.833C536.138 226.87 530.131 233.289 529.355 241.571C528.824 247.242 528.39 254.699 528.39 263.922C528.39 272.152 528.736 278.977 529.188 284.38C529.963 293.653 537.094 300.787 546.336 301.951C553.423 302.844 560.523 303.357 567.711 303.357C577.881 303.357 585.943 302.683 591.884 301.899C599.667 300.872 605.473 294.979 606.435 287.186C607.148 281.413 607.752 273.649 607.752 263.922C607.752 254.186 607.147 246.417 606.433 240.642Z" stroke="url(#paint26_linear_1459_34098)" stroke-width="0.5"/>
</g>
<g filter="url(#filter23_f_1459_34098)">
<rect x="551.461" y="277.926" width="34.2266" height="5.03332" rx="2.51666" fill="#436EBC"/>
</g>
<g filter="url(#filter24_i_1459_34098)">
<rect x="550.454" y="276.919" width="34.2266" height="5.03332" rx="2.51666" fill="url(#paint27_linear_1459_34098)"/>
</g>
<g filter="url(#filter25_f_1459_34098)">
<path d="M555.14 267.613C555.19 267.474 555.27 267.347 555.375 267.242L573.855 248.763C574.245 248.372 574.878 248.372 575.269 248.763L577.414 250.908C577.804 251.298 577.804 251.931 577.414 252.322L558.934 270.802C558.829 270.906 558.703 270.986 558.563 271.036L555.228 272.227C554.433 272.51 553.666 271.743 553.95 270.949L555.14 267.613Z" fill="#436EBC"/>
</g>
<g filter="url(#filter26_i_1459_34098)">
<path d="M555.135 266.612C555.185 266.472 555.265 266.345 555.37 266.24L573.824 247.786C574.215 247.396 574.848 247.396 575.238 247.786L577.383 249.931C577.774 250.322 577.774 250.955 577.383 251.345L558.929 269.799C558.824 269.904 558.698 269.984 558.558 270.034L554.233 271.575C553.836 271.717 553.453 271.334 553.594 270.937L555.135 266.612Z" fill="url(#paint28_linear_1459_34098)"/>
</g>
</g>
<defs>
<filter id="filter0_d_1459_34098" x="170.982" y="644.56" width="108.083" height="92.8154" filterUnits="userSpaceOnUse" color-interpolation-filters="sRGB">
<feFlood flood-opacity="0" result="BackgroundImageFix"/>
<feColorMatrix in="SourceAlpha" type="matrix" values="0 0 0 0 0 0 0 0 0 0 0 0 0 0 0 0 0 0 127 0" result="hardAlpha"/>
<feOffset dx="4" dy="4"/>
<feGaussianBlur stdDeviation="5"/>
<feComposite in2="hardAlpha" operator="out"/>
<feColorMatrix type="matrix" values="0 0 0 0 0 0 0 0 0 0 0 0 0 0 0 0 0 0 0.1 0"/>
<feBlend mode="normal" in2="BackgroundImageFix" result="effect1_dropShadow_1459_34098"/>
<feBlend mode="normal" in="SourceGraphic" in2="effect1_dropShadow_1459_34098" result="shape"/>
</filter>
<filter id="filter1_f_1459_34098" x="116.132" y="628.466" width="124.049" height="104.083" filterUnits="userSpaceOnUse" color-interpolation-filters="sRGB">
<feFlood flood-opacity="0" result="BackgroundImageFix"/>
<feBlend mode="normal" in="SourceGraphic" in2="BackgroundImageFix" result="shape"/>
<feGaussianBlur stdDeviation="4" result="effect1_foregroundBlur_1459_34098"/>
</filter>
<filter id="filter2_b_1459_34098" x="100.864" y="614.373" width="124.049" height="104.083" filterUnits="userSpaceOnUse" color-interpolation-filters="sRGB">
<feFlood flood-opacity="0" result="BackgroundImageFix"/>
<feGaussianBlur in="BackgroundImageFix" stdDeviation="4"/>
<feComposite in2="SourceAlpha" operator="in" result="effect1_backgroundBlur_1459_34098"/>
<feBlend mode="normal" in="SourceGraphic" in2="effect1_backgroundBlur_1459_34098" result="shape"/>
</filter>
<filter id="filter3_f_1459_34098" x="140.097" y="655.955" width="17.3955" height="17.3955" filterUnits="userSpaceOnUse" color-interpolation-filters="sRGB">
<feFlood flood-opacity="0" result="BackgroundImageFix"/>
<feBlend mode="normal" in="SourceGraphic" in2="BackgroundImageFix" result="shape"/>
<feGaussianBlur stdDeviation="2" result="effect1_foregroundBlur_1459_34098"/>
</filter>
<filter id="filter4_f_1459_34098" x="154.191" y="655.955" width="17.3955" height="17.3955" filterUnits="userSpaceOnUse" color-interpolation-filters="sRGB">
<feFlood flood-opacity="0" result="BackgroundImageFix"/>
<feBlend mode="normal" in="SourceGraphic" in2="BackgroundImageFix" result="shape"/>
<feGaussianBlur stdDeviation="2" result="effect1_foregroundBlur_1459_34098"/>
</filter>
<filter id="filter5_f_1459_34098" x="168.284" y="655.955" width="17.3955" height="17.3955" filterUnits="userSpaceOnUse" color-interpolation-filters="sRGB">
<feFlood flood-opacity="0" result="BackgroundImageFix"/>
<feBlend mode="normal" in="SourceGraphic" in2="BackgroundImageFix" result="shape"/>
<feGaussianBlur stdDeviation="2" result="effect1_foregroundBlur_1459_34098"/>
</filter>
<filter id="filter6_f_1459_34098" x="587.746" y="525.779" width="148.56" height="148.56" filterUnits="userSpaceOnUse" color-interpolation-filters="sRGB">
<feFlood flood-opacity="0" result="BackgroundImageFix"/>
<feBlend mode="normal" in="SourceGraphic" in2="BackgroundImageFix" result="shape"/>
<feGaussianBlur stdDeviation="16" result="effect1_foregroundBlur_1459_34098"/>
</filter>
<filter id="filter7_b_1459_34098" x="609.049" y="547.081" width="96.5598" height="96.5598" filterUnits="userSpaceOnUse" color-interpolation-filters="sRGB">
<feFlood flood-opacity="0" result="BackgroundImageFix"/>
<feGaussianBlur in="BackgroundImageFix" stdDeviation="3"/>
<feComposite in2="SourceAlpha" operator="in" result="effect1_backgroundBlur_1459_34098"/>
<feBlend mode="normal" in="SourceGraphic" in2="effect1_backgroundBlur_1459_34098" result="shape"/>
</filter>
<filter id="filter8_d_1459_34098" x="638.043" y="587.416" width="40.5133" height="19.2" filterUnits="userSpaceOnUse" color-interpolation-filters="sRGB">
<feFlood flood-opacity="0" result="BackgroundImageFix"/>
<feColorMatrix in="SourceAlpha" type="matrix" values="0 0 0 0 0 0 0 0 0 0 0 0 0 0 0 0 0 0 127 0" result="hardAlpha"/>
<feOffset dx="3" dy="3"/>
<feGaussianBlur stdDeviation="2"/>
<feComposite in2="hardAlpha" operator="out"/>
<feColorMatrix type="matrix" values="0 0 0 0 0 0 0 0 0 0 0 0 0 0 0 0 0 0 0.3 0"/>
<feBlend mode="normal" in2="BackgroundImageFix" result="effect1_dropShadow_1459_34098"/>
<feBlend mode="normal" in="SourceGraphic" in2="effect1_dropShadow_1459_34098" result="shape"/>
</filter>
<filter id="filter9_b_1459_34098" x="154.54" y="185.353" width="81.2921" height="81.2921" filterUnits="userSpaceOnUse" color-interpolation-filters="sRGB">
<feFlood flood-opacity="0" result="BackgroundImageFix"/>
<feGaussianBlur in="BackgroundImageFix" stdDeviation="3"/>
<feComposite in2="SourceAlpha" operator="in" result="effect1_backgroundBlur_1459_34098"/>
<feBlend mode="normal" in="SourceGraphic" in2="effect1_backgroundBlur_1459_34098" result="shape"/>
</filter>
<filter id="filter10_d_1459_34098" x="180.467" y="218.171" width="34.0757" height="17.308" filterUnits="userSpaceOnUse" color-interpolation-filters="sRGB">
<feFlood flood-opacity="0" result="BackgroundImageFix"/>
<feColorMatrix in="SourceAlpha" type="matrix" values="0 0 0 0 0 0 0 0 0 0 0 0 0 0 0 0 0 0 127 0" result="hardAlpha"/>
<feOffset dx="2" dy="2"/>
<feGaussianBlur stdDeviation="2"/>
<feComposite in2="hardAlpha" operator="out"/>
<feColorMatrix type="matrix" values="0 0 0 0 0 0 0 0 0 0 0 0 0 0 0 0 0 0 0.27 0"/>
<feBlend mode="normal" in2="BackgroundImageFix" result="effect1_dropShadow_1459_34098"/>
<feBlend mode="normal" in="SourceGraphic" in2="effect1_dropShadow_1459_34098" result="shape"/>
</filter>
<filter id="filter11_f_1459_34098" x="214.495" y="219.471" width="398.274" height="458.17" filterUnits="userSpaceOnUse" color-interpolation-filters="sRGB">
<feFlood flood-opacity="0" result="BackgroundImageFix"/>
<feBlend mode="normal" in="SourceGraphic" in2="BackgroundImageFix" result="shape"/>
<feGaussianBlur stdDeviation="20" result="effect1_foregroundBlur_1459_34098"/>
</filter>
<filter id="filter12_b_1459_34098" x="234.75" y="239.726" width="334.274" height="394.17" filterUnits="userSpaceOnUse" color-interpolation-filters="sRGB">
<feFlood flood-opacity="0" result="BackgroundImageFix"/>
<feGaussianBlur in="BackgroundImageFix" stdDeviation="4"/>
<feComposite in2="SourceAlpha" operator="in" result="effect1_backgroundBlur_1459_34098"/>
<feBlend mode="normal" in="SourceGraphic" in2="effect1_backgroundBlur_1459_34098" result="shape"/>
</filter>
<filter id="filter13_b_1459_34098" x="185.424" y="366.566" width="33.6166" height="33.6166" filterUnits="userSpaceOnUse" color-interpolation-filters="sRGB">
<feFlood flood-opacity="0" result="BackgroundImageFix"/>
<feGaussianBlur in="BackgroundImageFix" stdDeviation="4"/>
<feComposite in2="SourceAlpha" operator="in" result="effect1_backgroundBlur_1459_34098"/>
<feBlend mode="normal" in="SourceGraphic" in2="effect1_backgroundBlur_1459_34098" result="shape"/>
</filter>
<filter id="filter14_b_1459_34098" x="206.564" y="366.566" width="33.6166" height="33.6166" filterUnits="userSpaceOnUse" color-interpolation-filters="sRGB">
<feFlood flood-opacity="0" result="BackgroundImageFix"/>
<feGaussianBlur in="BackgroundImageFix" stdDeviation="4"/>
<feComposite in2="SourceAlpha" operator="in" result="effect1_backgroundBlur_1459_34098"/>
<feBlend mode="normal" in="SourceGraphic" in2="effect1_backgroundBlur_1459_34098" result="shape"/>
</filter>
<filter id="filter15_b_1459_34098" x="206.564" y="387.706" width="33.6166" height="33.6166" filterUnits="userSpaceOnUse" color-interpolation-filters="sRGB">
<feFlood flood-opacity="0" result="BackgroundImageFix"/>
<feGaussianBlur in="BackgroundImageFix" stdDeviation="4"/>
<feComposite in2="SourceAlpha" operator="in" result="effect1_backgroundBlur_1459_34098"/>
<feBlend mode="normal" in="SourceGraphic" in2="effect1_backgroundBlur_1459_34098" result="shape"/>
</filter>
<filter id="filter16_b_1459_34098" x="185.424" y="387.706" width="33.6166" height="33.6166" filterUnits="userSpaceOnUse" color-interpolation-filters="sRGB">
<feFlood flood-opacity="0" result="BackgroundImageFix"/>
<feGaussianBlur in="BackgroundImageFix" stdDeviation="4"/>
<feComposite in2="SourceAlpha" operator="in" result="effect1_backgroundBlur_1459_34098"/>
<feBlend mode="normal" in="SourceGraphic" in2="effect1_backgroundBlur_1459_34098" result="shape"/>
</filter>
<filter id="filter17_f_1459_34098" x="305.957" y="398.531" width="205.822" height="34.7911" filterUnits="userSpaceOnUse" color-interpolation-filters="sRGB">
<feFlood flood-opacity="0" result="BackgroundImageFix"/>
<feBlend mode="normal" in="SourceGraphic" in2="BackgroundImageFix" result="shape"/>
<feGaussianBlur stdDeviation="4" result="effect1_foregroundBlur_1459_34098"/>
</filter>
<filter id="filter18_f_1459_34098" x="302.647" y="330.414" width="83.4668" height="34.7911" filterUnits="userSpaceOnUse" color-interpolation-filters="sRGB">
<feFlood flood-opacity="0" result="BackgroundImageFix"/>
<feBlend mode="normal" in="SourceGraphic" in2="BackgroundImageFix" result="shape"/>
<feGaussianBlur stdDeviation="4" result="effect1_foregroundBlur_1459_34098"/>
</filter>
<filter id="filter19_f_1459_34098" x="305.957" y="466.649" width="205.822" height="34.7911" filterUnits="userSpaceOnUse" color-interpolation-filters="sRGB">
<feFlood flood-opacity="0" result="BackgroundImageFix"/>
<feBlend mode="normal" in="SourceGraphic" in2="BackgroundImageFix" result="shape"/>
<feGaussianBlur stdDeviation="4" result="effect1_foregroundBlur_1459_34098"/>
</filter>
<filter id="filter20_f_1459_34098" x="305.957" y="534.767" width="205.822" height="34.7911" filterUnits="userSpaceOnUse" color-interpolation-filters="sRGB">
<feFlood flood-opacity="0" result="BackgroundImageFix"/>
<feBlend mode="normal" in="SourceGraphic" in2="BackgroundImageFix" result="shape"/>
<feGaussianBlur stdDeviation="4" result="effect1_foregroundBlur_1459_34098"/>
</filter>
<filter id="filter21_f_1459_34098" x="530.361" y="228.807" width="91.8621" height="91.3693" filterUnits="userSpaceOnUse" color-interpolation-filters="sRGB">
<feFlood flood-opacity="0" result="BackgroundImageFix"/>
<feBlend mode="normal" in="SourceGraphic" in2="BackgroundImageFix" result="shape"/>
<feGaussianBlur stdDeviation="3" result="effect1_foregroundBlur_1459_34098"/>
</filter>
<filter id="filter22_b_1459_34098" x="520.14" y="216.237" width="95.8621" height="95.3693" filterUnits="userSpaceOnUse" color-interpolation-filters="sRGB">
<feFlood flood-opacity="0" result="BackgroundImageFix"/>
<feGaussianBlur in="BackgroundImageFix" stdDeviation="4"/>
<feComposite in2="SourceAlpha" operator="in" result="effect1_backgroundBlur_1459_34098"/>
<feBlend mode="normal" in="SourceGraphic" in2="effect1_backgroundBlur_1459_34098" result="shape"/>
</filter>
<filter id="filter23_f_1459_34098" x="547.461" y="273.926" width="42.2266" height="13.0333" filterUnits="userSpaceOnUse" color-interpolation-filters="sRGB">
<feFlood flood-opacity="0" result="BackgroundImageFix"/>
<feBlend mode="normal" in="SourceGraphic" in2="BackgroundImageFix" result="shape"/>
<feGaussianBlur stdDeviation="2" result="effect1_foregroundBlur_1459_34098"/>
</filter>
<filter id="filter24_i_1459_34098" x="550.454" y="276.919" width="35.2266" height="5.03333" filterUnits="userSpaceOnUse" color-interpolation-filters="sRGB">
<feFlood flood-opacity="0" result="BackgroundImageFix"/>
<feBlend mode="normal" in="SourceGraphic" in2="BackgroundImageFix" result="shape"/>
<feColorMatrix in="SourceAlpha" type="matrix" values="0 0 0 0 0 0 0 0 0 0 0 0 0 0 0 0 0 0 127 0" result="hardAlpha"/>
<feOffset dx="1"/>
<feGaussianBlur stdDeviation="2"/>
<feComposite in2="hardAlpha" operator="arithmetic" k2="-1" k3="1"/>
<feColorMatrix type="matrix" values="0 0 0 0 0.8875 0 0 0 0 0.927737 0 0 0 0 1 0 0 0 1 0"/>
<feBlend mode="normal" in2="shape" result="effect1_innerShadow_1459_34098"/>
</filter>
<filter id="filter25_f_1459_34098" x="549.89" y="244.47" width="31.817" height="31.817" filterUnits="userSpaceOnUse" color-interpolation-filters="sRGB">
<feFlood flood-opacity="0" result="BackgroundImageFix"/>
<feBlend mode="normal" in="SourceGraphic" in2="BackgroundImageFix" result="shape"/>
<feGaussianBlur stdDeviation="2" result="effect1_foregroundBlur_1459_34098"/>
</filter>
<filter id="filter26_i_1459_34098" x="553.564" y="247.493" width="25.1118" height="24.1119" filterUnits="userSpaceOnUse" color-interpolation-filters="sRGB">
<feFlood flood-opacity="0" result="BackgroundImageFix"/>
<feBlend mode="normal" in="SourceGraphic" in2="BackgroundImageFix" result="shape"/>
<feColorMatrix in="SourceAlpha" type="matrix" values="0 0 0 0 0 0 0 0 0 0 0 0 0 0 0 0 0 0 127 0" result="hardAlpha"/>
<feOffset dx="1"/>
<feGaussianBlur stdDeviation="2"/>
<feComposite in2="hardAlpha" operator="arithmetic" k2="-1" k3="1"/>
<feColorMatrix type="matrix" values="0 0 0 0 0.8875 0 0 0 0 0.927737 0 0 0 0 1 0 0 0 1 0"/>
<feBlend mode="normal" in2="shape" result="effect1_innerShadow_1459_34098"/>
</filter>
<linearGradient id="paint0_linear_1459_34098" x1="0" y1="0" x2="912.593" y2="804.962" gradientUnits="userSpaceOnUse">
<stop stop-color="#2263D7"/>
<stop offset="1" stop-color="#043EA6"/>
</linearGradient>
<linearGradient id="paint1_linear_1459_34098" x1="-49.6855" y1="-0.0811462" x2="869.902" y2="901.89" gradientUnits="userSpaceOnUse">
<stop stop-color="#2263D7"/>
<stop offset="1" stop-color="#043EA6"/>
</linearGradient>
<linearGradient id="paint2_linear_1459_34098" x1="113.244" y1="626.245" x2="212.134" y2="699.858" gradientUnits="userSpaceOnUse">
<stop stop-color="#BAD3FF" stop-opacity="0.1"/>
<stop offset="1" stop-color="#BAD3FF" stop-opacity="0.4"/>
</linearGradient>
<linearGradient id="paint3_linear_1459_34098" x1="108.864" y1="622.373" x2="216.421" y2="711.05" gradientUnits="userSpaceOnUse">
<stop stop-color="#B0C7EF" stop-opacity="0.4"/>
<stop offset="1" stop-color="#B0C7EF" stop-opacity="0.1"/>
</linearGradient>
<linearGradient id="paint4_linear_1459_34098" x1="144.489" y1="660.347" x2="151.535" y2="668.176" gradientUnits="userSpaceOnUse">
<stop stop-color="white"/>
<stop offset="1" stop-color="white" stop-opacity="0.1"/>
</linearGradient>
<linearGradient id="paint5_linear_1459_34098" x1="158.582" y1="660.347" x2="165.629" y2="668.176" gradientUnits="userSpaceOnUse">
<stop stop-color="white"/>
<stop offset="1" stop-color="white" stop-opacity="0.1"/>
</linearGradient>
<linearGradient id="paint6_linear_1459_34098" x1="172.675" y1="660.347" x2="179.722" y2="668.176" gradientUnits="userSpaceOnUse">
<stop stop-color="white"/>
<stop offset="1" stop-color="white" stop-opacity="0.1"/>
</linearGradient>
<linearGradient id="paint7_linear_1459_34098" x1="615.049" y1="553.081" x2="699.608" y2="637.641" gradientUnits="userSpaceOnUse">
<stop stop-color="#FE2A2A" stop-opacity="0.6"/>
<stop offset="1" stop-color="#FE2A2A" stop-opacity="0.2"/>
</linearGradient>
<linearGradient id="paint8_linear_1459_34098" x1="160.54" y1="191.353" x2="229.832" y2="260.645" gradientUnits="userSpaceOnUse">
<stop stop-color="#FECF2A" stop-opacity="0.6"/>
<stop offset="1" stop-color="#FECF2A" stop-opacity="0.2"/>
</linearGradient>
<linearGradient id="paint9_linear_1459_34098" x1="242.75" y1="247.726" x2="513.65" y2="657.236" gradientUnits="userSpaceOnUse">
<stop stop-color="#BAD3FF" stop-opacity="0.05"/>
<stop offset="1" stop-color="#BAD3FF" stop-opacity="0.3"/>
</linearGradient>
<linearGradient id="paint10_linear_1459_34098" x1="242.75" y1="247.726" x2="513.65" y2="657.236" gradientUnits="userSpaceOnUse">
<stop stop-color="#B0C7EF" stop-opacity="0.4"/>
<stop offset="0.932292" stop-color="#B0C7EF" stop-opacity="0.1"/>
</linearGradient>
<linearGradient id="paint11_linear_1459_34098" x1="456.571" y1="302.747" x2="477.934" y2="326.484" gradientUnits="userSpaceOnUse">
<stop stop-color="white"/>
<stop offset="1" stop-color="white" stop-opacity="0.1"/>
</linearGradient>
<linearGradient id="paint12_linear_1459_34098" x1="446.022" y1="338.352" x2="470.632" y2="381.646" gradientUnits="userSpaceOnUse">
<stop stop-color="white"/>
<stop offset="1" stop-color="white" stop-opacity="0.1"/>
</linearGradient>
<linearGradient id="paint13_linear_1459_34098" x1="194.138" y1="375.425" x2="213.428" y2="385.973" gradientUnits="userSpaceOnUse">
<stop stop-color="#BAD3FF" stop-opacity="0.1"/>
<stop offset="1" stop-color="#BAD3FF" stop-opacity="0.4"/>
</linearGradient>
<linearGradient id="paint14_linear_1459_34098" x1="193.424" y1="374.566" x2="214.976" y2="387.618" gradientUnits="userSpaceOnUse">
<stop stop-color="#B0C7EF" stop-opacity="0.4"/>
<stop offset="1" stop-color="#B0C7EF" stop-opacity="0.1"/>
</linearGradient>
<linearGradient id="paint15_linear_1459_34098" x1="215.278" y1="375.425" x2="234.568" y2="385.973" gradientUnits="userSpaceOnUse">
<stop stop-color="#BAD3FF" stop-opacity="0.1"/>
<stop offset="1" stop-color="#BAD3FF" stop-opacity="0.4"/>
</linearGradient>
<linearGradient id="paint16_linear_1459_34098" x1="214.564" y1="374.566" x2="236.116" y2="387.618" gradientUnits="userSpaceOnUse">
<stop stop-color="#B0C7EF" stop-opacity="0.4"/>
<stop offset="1" stop-color="#B0C7EF" stop-opacity="0.1"/>
</linearGradient>
<linearGradient id="paint17_linear_1459_34098" x1="215.278" y1="396.565" x2="234.568" y2="407.113" gradientUnits="userSpaceOnUse">
<stop stop-color="#BAD3FF" stop-opacity="0.1"/>
<stop offset="1" stop-color="#BAD3FF" stop-opacity="0.4"/>
</linearGradient>
<linearGradient id="paint18_linear_1459_34098" x1="214.564" y1="395.706" x2="236.116" y2="408.758" gradientUnits="userSpaceOnUse">
<stop stop-color="#B0C7EF" stop-opacity="0.4"/>
<stop offset="1" stop-color="#B0C7EF" stop-opacity="0.1"/>
</linearGradient>
<linearGradient id="paint19_linear_1459_34098" x1="194.138" y1="396.565" x2="213.428" y2="407.113" gradientUnits="userSpaceOnUse">
<stop stop-color="#BAD3FF" stop-opacity="0.1"/>
<stop offset="1" stop-color="#BAD3FF" stop-opacity="0.4"/>
</linearGradient>
<linearGradient id="paint20_linear_1459_34098" x1="193.424" y1="395.706" x2="214.976" y2="408.758" gradientUnits="userSpaceOnUse">
<stop stop-color="#B0C7EF" stop-opacity="0.4"/>
<stop offset="1" stop-color="#B0C7EF" stop-opacity="0.1"/>
</linearGradient>
<linearGradient id="paint21_linear_1459_34098" x1="402.671" y1="400.659" x2="403.943" y2="418.371" gradientUnits="userSpaceOnUse">
<stop stop-color="#F4F8FF"/>
<stop offset="1" stop-color="#92B6F7"/>
</linearGradient>
<linearGradient id="paint22_linear_1459_34098" x1="342.177" y1="332.542" x2="345.633" y2="349.646" gradientUnits="userSpaceOnUse">
<stop stop-color="#F4F8FF"/>
<stop offset="1" stop-color="#92B6F7"/>
</linearGradient>
<linearGradient id="paint23_linear_1459_34098" x1="402.671" y1="468.777" x2="403.943" y2="486.488" gradientUnits="userSpaceOnUse">
<stop stop-color="#F4F8FF"/>
<stop offset="1" stop-color="#92B6F7"/>
</linearGradient>
<linearGradient id="paint24_linear_1459_34098" x1="402.671" y1="536.894" x2="403.943" y2="554.606" gradientUnits="userSpaceOnUse">
<stop stop-color="#F4F8FF"/>
<stop offset="1" stop-color="#92B6F7"/>
</linearGradient>
<linearGradient id="paint25_linear_1459_34098" x1="531.378" y1="228.109" x2="618.575" y2="276.086" gradientUnits="userSpaceOnUse">
<stop stop-color="#BAD3FF" stop-opacity="0.1"/>
<stop offset="1" stop-color="#BAD3FF" stop-opacity="0.4"/>
</linearGradient>
<linearGradient id="paint26_linear_1459_34098" x1="528.14" y1="224.237" x2="625.516" y2="283.578" gradientUnits="userSpaceOnUse">
<stop stop-color="#B0C7EF" stop-opacity="0.4"/>
<stop offset="1" stop-color="#B0C7EF" stop-opacity="0.1"/>
</linearGradient>
<linearGradient id="paint27_linear_1459_34098" x1="550.454" y1="276.919" x2="584.681" y2="281.953" gradientUnits="userSpaceOnUse">
<stop stop-color="white"/>
<stop offset="1" stop-color="white" stop-opacity="0.1"/>
</linearGradient>
<linearGradient id="paint28_linear_1459_34098" x1="563.193" y1="258.811" x2="566.877" y2="262.159" gradientUnits="userSpaceOnUse">
<stop stop-color="white"/>
<stop offset="1" stop-color="white" stop-opacity="0.1"/>
</linearGradient>
</defs>
</svg>
