<svg width="149" height="53" viewBox="0 0 149 53" fill="none" xmlns="http://www.w3.org/2000/svg">
<path fill-rule="evenodd" clip-rule="evenodd" d="M4.72538 46.7278C4.71835 46.6437 4.71122 46.5585 4.70283 46.4719L4.70381 46.4709C4.6838 46.4682 4.66786 46.4652 4.65439 46.4626C4.63343 46.4587 4.61847 46.4559 4.6035 46.4571C4.05556 46.4933 3.50761 46.5299 2.95962 46.5665L2.95927 46.5665L2.95892 46.5666L2.95857 46.5666L2.95822 46.5666L2.95788 46.5666L2.95753 46.5666L2.95717 46.5667C2.03065 46.6286 1.10398 46.6905 0.176928 46.7504C0.026458 46.7603 0.0067887 46.839 0.00285484 46.9641C-0.0699215 49.3326 1.25284 51.3152 3.50005 51.9462C5.76202 52.5811 8.05645 52.6244 10.3243 52.02C11.8979 51.6016 13.1183 50.6379 13.8953 49.182C14.9712 47.1678 14.4913 44.8338 12.6925 43.4349C12.2057 43.0569 11.6549 42.7449 11.0954 42.484C10.5296 42.2196 9.95131 41.9826 9.37281 41.7455L9.37274 41.7455L9.37273 41.7455L9.37272 41.7455L9.3727 41.7455L9.37269 41.7455L9.37268 41.7455C8.99482 41.5906 8.61688 41.4357 8.24232 41.2732C7.84303 41.0999 7.43588 40.9217 7.07888 40.6786C6.43766 40.2415 6.41013 39.5101 7.01299 39.0238C7.24509 38.8367 7.55488 38.6783 7.84402 38.6458C8.321 38.5936 8.8206 38.5956 9.29168 38.6802C10.0539 38.8171 10.5259 39.324 10.7266 40.0722C10.762 40.2033 10.7874 40.3372 10.8137 40.4753C10.826 40.5404 10.8386 40.6065 10.8524 40.6737C10.8773 40.6737 10.9013 40.6741 10.9248 40.6746C10.9701 40.6754 11.0133 40.6763 11.056 40.6737L13.1326 40.5614L15.2092 40.4492L15.2125 40.449C15.5347 40.4315 15.5365 40.4314 15.4924 40.1155C15.2446 38.3475 14.3172 37.0904 12.6728 36.3777C11.6559 35.9367 10.581 35.7624 9.48444 35.6984C8.09087 35.6177 6.7091 35.6689 5.37454 36.1316C4.0685 36.5844 2.968 37.3207 2.35432 38.6034C1.61672 40.145 1.64622 41.66 2.69361 43.0766C3.07716 43.5954 3.60725 43.9577 4.17963 44.2195C4.87165 44.536 5.5729 44.8315 6.2741 45.1269C6.71789 45.3139 7.16166 45.5009 7.60307 45.6932C7.68958 45.7309 7.77658 45.768 7.86369 45.8053L7.86393 45.8054C8.28673 45.986 8.71212 46.1678 9.09695 46.4118C9.83947 46.8824 9.92404 47.7792 9.34478 48.4417C9.07138 48.7547 8.73209 48.9644 8.33378 49.0747C7.76534 49.2322 7.18706 49.2597 6.60977 49.1554C5.52501 48.9595 4.93198 48.3324 4.77758 47.2338C4.75379 47.0678 4.73977 46.9 4.72538 46.7278ZM77.6844 41.3112C77.7474 41.0212 77.8116 40.7255 77.8785 40.4187H77.5471C77.2378 40.4187 76.9285 40.4194 76.6191 40.4201H76.619H76.6189H76.6188H76.6187H76.6186H76.6185C75.7515 40.422 74.8842 40.4239 74.0174 40.4108C73.7322 40.4069 73.6378 40.4974 73.5798 40.7691C73.009 43.45 72.4299 46.1297 71.8508 48.8091L71.8503 48.8115L71.8484 48.8202C71.6879 49.5629 71.5273 50.3057 71.367 51.0484C71.3209 51.2618 71.2762 51.4756 71.231 51.692C71.202 51.8309 71.1727 51.9709 71.1428 52.1126C71.1656 52.1169 71.1853 52.1214 71.2029 52.1254C71.237 52.1331 71.2634 52.1391 71.2893 52.1391C71.6722 52.1394 72.055 52.1394 72.4379 52.1395C73.4584 52.1396 74.479 52.1398 75.4995 52.1441C75.6618 52.145 75.6923 52.0594 75.7188 51.9344C75.7567 51.7582 75.7944 51.582 75.8322 51.4058C75.9756 50.7359 76.1191 50.0655 76.2725 49.3975C76.327 49.1605 76.3808 48.9234 76.4347 48.6863C76.6413 47.776 76.8479 46.8661 77.0898 45.9649C77.2835 45.2453 77.6405 44.5926 78.1824 44.06C78.5886 43.6614 79.0695 43.4271 79.6478 43.4271C80.1955 43.4261 80.5073 43.6968 80.5299 44.2451C80.5417 44.5345 80.4965 44.8328 80.4375 45.1183C80.102 46.7325 79.7615 48.3457 79.421 49.9586L79.4199 49.9637L79.4188 49.969C79.2878 50.5894 79.1569 51.2097 79.0262 51.83C79.0135 51.8904 79.0033 51.9515 78.9918 52.0201L78.9918 52.0204C78.9855 52.058 78.9788 52.0979 78.9711 52.1411H79.2593C79.6013 52.1411 79.9433 52.1407 80.2853 52.1403C81.2543 52.1392 82.2232 52.138 83.1922 52.146C83.4085 52.148 83.4941 52.087 83.5393 51.8694C83.7048 51.0772 83.8749 50.2859 84.0449 49.4945L84.045 49.494L84.0451 49.4934L84.0452 49.4929L84.0454 49.4924L84.0455 49.4918L84.0456 49.4913L84.0458 49.4901L84.0461 49.4889L84.0464 49.4877C84.2819 48.3914 84.5175 47.2949 84.7411 46.1962L84.7568 46.1197L84.7726 46.0425L84.7973 45.9221C84.9864 45.0006 85.1764 44.0748 85.2614 43.1416C85.404 41.5862 84.4156 40.4148 82.8657 40.2139C80.944 39.9649 79.2799 40.5289 77.8864 41.8796C77.8129 41.9511 77.7404 42.0235 77.6678 42.0959L77.6396 42.1241L77.6079 42.1556C77.5916 42.1719 77.5753 42.1882 77.5589 42.2044C77.5382 42.1926 77.5186 42.1808 77.4979 42.169C77.5598 41.8851 77.6215 41.601 77.6844 41.3112ZM62.6515 52.4778C62.4215 52.4459 62.1901 52.4195 61.9587 52.3931C61.4559 52.3358 60.9529 52.2784 60.4633 52.1638C58.1994 51.6322 56.734 49.7953 56.6386 47.4425C56.4842 43.6142 59.1209 40.5861 62.9298 40.215C64.1179 40.0998 65.2931 40.1431 66.4565 40.4453C68.8119 41.0576 69.9124 43.1722 70.0767 44.7768C70.473 48.6583 67.7695 51.9679 63.8926 52.3449C63.6079 52.373 63.3216 52.3902 63.0357 52.4073L63.0354 52.4073L63.0352 52.4073L63.035 52.4073L63.0348 52.4073C62.9102 52.4148 62.7857 52.4222 62.6613 52.4306C62.6598 52.4386 62.6581 52.4466 62.6563 52.4545L62.6554 52.4586L62.6538 52.4661L62.6526 52.4714L62.6515 52.4768V52.4778ZM65.7258 45.33C65.7229 45.2713 65.7209 45.2127 65.7189 45.154C65.715 45.0366 65.7111 44.9192 65.6993 44.8023C65.6039 43.88 64.9941 43.2578 64.0903 43.1869C63.1836 43.1151 62.4332 43.4271 61.9208 44.1969C61.315 45.1085 60.9973 46.1195 61.0386 47.2181C61.0514 47.5617 61.1321 47.9249 61.2727 48.238C61.7625 49.3287 62.9711 49.7077 64.0008 49.1249C64.3913 48.9044 64.6824 48.5825 64.9125 48.2045C65.4495 47.3224 65.7071 46.3607 65.7258 45.33ZM19.8197 52.1077C20.6182 52.3381 21.4355 52.4129 22.2636 52.4306L22.2646 52.4286C22.3974 52.4194 22.5305 52.4113 22.6636 52.4031L22.6639 52.4031L22.6641 52.4031H22.6641C22.9417 52.3862 23.2195 52.3693 23.4959 52.342C27.1858 51.9758 29.8146 48.9812 29.7153 45.2709C29.6622 43.2962 28.4437 40.9346 25.7549 40.3656C24.6839 40.1392 23.606 40.1077 22.5203 40.213C18.5451 40.5999 15.8386 43.9302 16.2753 47.8993C16.4995 49.9312 17.8567 51.5426 19.8197 52.1077ZM25.3153 45.1198C25.3208 45.1948 25.3263 45.2699 25.333 45.3448C25.2956 46.402 25.0311 47.3874 24.4577 48.2803C24.1292 48.7912 23.6955 49.1751 23.0907 49.3238C21.9125 49.6132 20.8199 48.8473 20.6645 47.5755C20.5032 46.2573 20.8661 45.0524 21.6676 44.006C22.2301 43.2726 23.0346 43.0452 23.9237 43.2312C24.6613 43.3858 25.1441 43.8445 25.2651 44.6193C25.2909 44.7845 25.3031 44.9521 25.3153 45.1198ZM48.4139 43.626H46.8079L46.8589 43.3767C46.9417 42.9714 47.0197 42.5899 47.099 42.2084C47.132 42.0486 47.1661 41.8891 47.2001 41.7296L47.2004 41.7284C47.2767 41.3706 47.3531 41.013 47.4176 40.653C47.4521 40.4601 47.5376 40.4109 47.7206 40.4158C47.939 40.4222 48.1574 40.4211 48.3758 40.42H48.3758C48.5606 40.419 48.7454 40.4181 48.9302 40.4217C49.0748 40.4247 49.1377 40.3745 49.1653 40.2307C49.2607 39.7444 49.362 39.2581 49.478 38.7768C49.5016 38.6773 49.5813 38.5582 49.6688 38.5139C50.9607 37.8637 52.2566 37.2208 53.5522 36.5781C53.8296 36.4405 54.1071 36.3028 54.3845 36.1651C54.4081 36.1533 54.4338 36.145 54.4731 36.1323C54.4928 36.126 54.5159 36.1185 54.5438 36.109C54.3021 37.2432 54.0646 38.3555 53.8237 39.4837L53.6253 40.4128H55.9512C55.9434 40.4593 55.9371 40.4998 55.9314 40.5364C55.9221 40.5967 55.9144 40.6467 55.904 40.6964C55.8413 40.9905 55.7781 41.2845 55.7148 41.5785L55.7146 41.5793L55.7144 41.5802L55.7142 41.5811L55.7136 41.5841L55.7134 41.5848C55.5844 42.1843 55.4553 42.7839 55.3316 43.3848C55.2952 43.563 55.2313 43.6358 55.0365 43.6309C54.7028 43.6241 54.3691 43.6248 54.0355 43.6255H54.0354H54.0354H54.0353H54.0353C53.7388 43.6261 53.4425 43.6267 53.1463 43.622C52.9703 43.6191 52.8975 43.6713 52.8611 43.8485C52.718 44.5439 52.571 45.2387 52.424 45.9334C52.2769 46.6282 52.1299 47.3229 51.9868 48.0184C51.8423 48.7213 52.1491 49.121 52.867 49.1289C53.1392 49.1317 53.4119 49.0926 53.6848 49.0535L53.6849 49.0535C53.7955 49.0377 53.9061 49.0218 54.0167 49.0088C54.096 48.9992 54.1748 48.9834 54.263 48.9658C54.3017 48.958 54.3423 48.9499 54.3855 48.9418C54.3816 48.9748 54.3788 49.0042 54.3763 49.0311V49.0311L54.3763 49.0312C54.3718 49.0788 54.3681 49.1188 54.3599 49.1584C54.3236 49.3318 54.2875 49.5053 54.2513 49.6787L54.2498 49.6858L54.2497 49.6862L54.2497 49.6865L54.2496 49.6869C54.0941 50.4323 53.9386 51.178 53.7748 51.9216C53.7561 52.0083 53.6705 52.1382 53.6027 52.1471C53.4615 52.1654 53.3204 52.1843 53.1793 52.2033C52.0466 52.3553 50.9125 52.5075 49.7652 52.343C48.3529 52.1412 47.3813 51.1499 47.2809 49.7471C47.2508 49.3247 47.3389 48.8869 47.4236 48.4661L47.4265 48.4516C47.6476 47.3422 47.8801 46.2354 48.1128 45.1281L48.1128 45.1278L48.1131 45.1268L48.1133 45.1257L48.1135 45.1247C48.2004 44.7112 48.2873 44.2977 48.3736 43.8839C48.383 43.8378 48.3905 43.7909 48.3995 43.7338C48.4046 43.7019 48.4101 43.6668 48.4169 43.627L48.4139 43.626ZM31.0201 51.3488L31.0191 51.3534L31.0162 51.3668C30.9624 51.6198 30.9076 51.8771 30.8512 52.1412H31.1698C31.5057 52.1412 31.8417 52.1406 32.1777 52.1401H32.1778H32.1779C33.1443 52.1386 34.111 52.1371 35.0771 52.148C35.3269 52.151 35.4007 52.0683 35.4499 51.838C36.2413 48.1104 37.0377 44.3839 37.8341 40.6573L37.8344 40.6558L37.8347 40.6543C38.1059 39.3853 38.3771 38.1163 38.6481 36.8473C38.6879 36.6612 38.7264 36.4742 38.7666 36.2787L38.7668 36.278C38.7882 36.1739 38.8101 36.0674 38.833 35.9574C38.7948 35.9553 38.7593 35.9531 38.7256 35.9509C38.6474 35.946 38.5792 35.9416 38.5104 35.9416C38.1406 35.9413 37.7707 35.942 37.4009 35.9426C36.4933 35.9441 35.5858 35.9456 34.6788 35.9338C34.3926 35.9298 34.2982 36.0233 34.2402 36.2941C33.4192 40.1562 32.5912 44.0169 31.7633 47.8774C31.6045 48.6181 31.4457 49.3588 31.2869 50.0995C31.1984 50.5113 31.1106 50.9235 31.0203 51.3476L31.0201 51.3488ZM45.4773 40.4188C45.4368 40.6093 45.3973 40.7955 45.3585 40.9786L45.3583 40.9798C45.2691 41.4009 45.1834 41.8059 45.0957 42.2104C44.9249 43.0008 44.754 43.7912 44.583 44.5816L44.5829 44.5819C44.0579 47.0095 43.5328 49.4372 43.0127 51.8655C42.9675 52.0762 42.8937 52.149 42.6705 52.1471C41.6813 52.1382 40.6922 52.1393 39.7035 52.1404H39.7033C39.3738 52.1408 39.0444 52.1412 38.715 52.1412H38.4317C38.4378 52.1065 38.4433 52.0741 38.4485 52.0434C38.462 51.964 38.4736 51.8955 38.4878 51.8281C38.6757 50.9534 38.8638 50.0786 39.052 49.2039C39.6621 46.3667 40.2722 43.5296 40.8766 40.6914C40.9229 40.4749 41.0064 40.4119 41.2238 40.4138C42.2129 40.4212 43.202 40.4203 44.1907 40.4194H44.1909C44.5204 40.4191 44.8499 40.4188 45.1793 40.4188H45.4773ZM41.3247 38.7448C41.3079 38.8292 41.2911 38.9142 41.2739 39.0002L41.2749 38.9992C41.3047 39.0035 41.3301 39.0081 41.3527 39.0121C41.3922 39.0192 41.4233 39.0248 41.4539 39.0248C41.8474 39.0251 42.2408 39.025 42.6342 39.025C43.6176 39.0249 44.6011 39.0248 45.5845 39.0297C45.7585 39.0307 45.791 38.9401 45.8185 38.8053C45.9281 38.271 46.0395 37.7372 46.1509 37.2033C46.2196 36.8743 46.2883 36.5454 46.3565 36.2163C46.367 36.1634 46.3719 36.1097 46.3768 36.0539C46.3793 36.0265 46.3818 35.9986 46.385 35.9702C46.3649 35.9658 46.3478 35.9611 46.3328 35.9569C46.3075 35.95 46.2877 35.9446 46.268 35.9446C45.8005 35.9439 45.3332 35.9436 44.8659 35.9432C43.9312 35.9426 42.9967 35.9419 42.0617 35.9387C41.8975 35.9377 41.8739 36.0361 41.8493 36.1582C41.7706 36.5483 41.6909 36.9382 41.6112 37.328C41.5564 37.5963 41.5015 37.8645 41.447 38.1329C41.4058 38.3356 41.3656 38.5383 41.3247 38.7448Z" fill="#28292B"/>
<path fill-rule="evenodd" clip-rule="evenodd" d="M49.7015 11.7714C49.7266 11.7476 49.7485 11.7263 49.7685 11.7069L49.7686 11.7068C49.8066 11.6699 49.8378 11.6396 49.8706 11.6119C50.1394 11.3855 50.4082 11.1591 50.677 10.9327C51.752 10.0274 52.827 9.12209 53.897 8.21174C54.0484 8.08278 54.1448 8.08475 54.3031 8.19993C57.0676 10.2081 60.1705 11.3264 63.5526 11.7094C67.0636 12.1071 70.5126 11.7123 73.9232 10.8756C78.2859 9.80452 82.3869 8.06998 86.3247 5.93282C89.3705 4.279 92.4586 2.71871 95.7266 1.54233C97.4998 0.903447 99.3025 0.354144 101.166 0.0617728C101.71 -0.0238818 102.274 -0.00213796 102.833 0.0193756C102.923 0.0228345 103.012 0.0262874 103.102 0.0292871C107.891 0.191716 112.211 1.83372 116.283 4.24357C116.822 4.56268 117.356 4.891 117.89 5.21928L117.89 5.21946L117.89 5.2196C118.796 5.77632 119.701 6.33294 120.631 6.84439C124.818 9.14595 129.289 10.6304 134.013 11.3451C136.545 11.7291 139.093 11.8619 141.652 11.7409C144.025 11.6286 146.368 11.3038 148.682 10.7712C148.729 10.7604 148.776 10.7505 148.838 10.7376C148.882 10.7283 148.935 10.7173 149 10.7033C148.964 10.7359 148.935 10.763 148.91 10.7862L148.909 10.7864C148.865 10.8277 148.833 10.857 148.799 10.8834C146.968 12.2941 145.137 13.7048 143.305 15.1135C142.95 15.3868 142.526 15.4377 142.107 15.488C142.052 15.4946 141.997 15.5012 141.943 15.5082C139.65 15.8045 137.348 15.7691 135.046 15.6785C133.044 15.5998 131.054 15.4186 129.107 14.9186C128.738 14.8234 128.367 14.7303 127.997 14.6371C126.738 14.3205 125.478 14.0038 124.245 13.6083C121.789 12.8198 119.494 11.6493 117.217 10.4503C116.441 10.0414 115.667 9.62992 114.892 9.21842C113.143 8.28952 111.395 7.36059 109.631 6.46145C107.554 5.40222 105.394 4.53692 103.123 3.9699C100.27 3.25718 97.4733 3.41961 94.6832 4.33708C91.9777 5.22601 89.3685 6.33643 86.8037 7.56301C85.8159 8.0358 84.8301 8.51292 83.8442 8.99006L83.8435 8.99039C81.9701 9.89703 80.0967 10.8037 78.2102 11.6808C75.2558 13.0541 72.214 14.198 69.0276 14.9235C66.087 15.5939 63.1199 15.8252 60.1154 15.5082C56.4117 15.1164 53.0236 13.8259 49.8608 11.8954C49.8281 11.8758 49.7984 11.8513 49.7621 11.8214C49.744 11.8064 49.7242 11.7901 49.7015 11.7724V11.7714ZM131.154 25.6752C131.133 25.6929 131.112 25.7111 131.092 25.7292C131.057 25.7594 131.023 25.7897 130.987 25.818C130.595 26.1201 130.203 26.4227 129.811 26.7252L129.81 26.7264C128.386 27.826 126.962 28.9256 125.525 30.0076C125.271 30.1986 124.916 30.3079 124.595 30.3453C124.533 30.3525 124.47 30.3598 124.407 30.367C123.369 30.4872 122.327 30.6077 121.285 30.6337C118.68 30.6977 116.076 30.6337 113.49 30.2557C112.892 30.1681 112.296 30.0578 111.707 29.921C111.633 29.9039 111.56 29.8868 111.486 29.8698L111.385 29.8465C110.257 29.5852 109.128 29.3239 108.012 29.0183C105.552 28.3459 103.231 27.3182 100.973 26.1507C99.5747 25.4273 98.1845 24.6865 96.7944 23.9458C95.6628 23.3428 94.5312 22.7398 93.3948 22.1461C91.1506 20.9737 88.8601 19.9016 86.424 19.1791C84.4158 18.5835 82.3761 18.2705 80.2764 18.489C78.8278 18.6396 77.448 19.0718 76.076 19.5266C73.3253 20.4381 70.7063 21.6608 68.0992 22.913C67.3858 23.2556 66.6733 23.6 65.9608 23.9444C63.9345 24.9238 61.9082 25.9032 59.8636 26.8427C57.103 28.1107 54.253 29.1472 51.2829 29.8265C48.8872 30.3748 46.4629 30.6367 44.0043 30.5451C39.7036 30.3856 35.7638 29.0606 32.1093 26.828C32.0685 26.8033 32.0302 26.774 31.987 26.7408C31.9645 26.7236 31.9407 26.7054 31.9146 26.6862C31.941 26.6615 31.9651 26.6382 31.988 26.6161L31.988 26.6161C32.0308 26.5748 32.0693 26.5377 32.1103 26.5031C32.5154 26.1611 32.9209 25.8195 33.3264 25.4779L33.327 25.4773C34.2519 24.6981 35.1767 23.9189 36.0982 23.1354C36.2546 23.0025 36.3569 22.9927 36.528 23.1167C39.2502 25.0905 42.3009 26.2058 45.6299 26.6025C49.0278 27.0071 52.3726 26.6665 55.6849 25.8947C60.1606 24.8513 64.363 23.099 68.3942 20.9215C71.2138 19.3986 74.058 17.9328 77.0546 16.783C79.0431 16.0201 81.0661 15.3556 83.1708 15.015C83.9546 14.8881 84.774 14.9236 85.575 14.9584L85.6324 14.9609C89.6852 15.1361 93.4332 16.3804 96.9678 18.3059C98.0518 18.8965 99.1063 19.5426 100.16 20.1885L100.161 20.1889C100.454 20.3686 100.748 20.5482 101.041 20.7266C106.139 23.8226 111.643 25.7402 117.567 26.4332C122.092 26.9628 126.576 26.6892 131.013 25.6585C131.039 25.6527 131.065 25.6478 131.091 25.6429C131.105 25.6403 131.118 25.6376 131.132 25.6349C131.135 25.639 131.137 25.6431 131.14 25.6472L131.145 25.6556C131.149 25.6625 131.153 25.6693 131.157 25.6762L131.154 25.6752ZM140.086 18.2448C140.086 18.2445 140.086 18.2442 140.087 18.2439L140.086 18.2449L140.086 18.2448ZM139.03 19.0587C139.382 18.7873 139.734 18.5159 140.086 18.2448L140.062 18.1996C140.029 18.2069 139.996 18.2138 139.963 18.2207C139.915 18.2307 139.867 18.2407 139.819 18.2518C134.795 19.4036 129.737 19.5818 124.649 18.748C119.077 17.8334 113.913 15.8439 109.159 12.7932C106.997 11.4062 104.755 10.1708 102.358 9.23163C99.2032 7.99619 95.9371 7.39471 92.5461 7.50891C92.4212 7.51284 92.2943 7.52859 92.1714 7.55124C90.5733 7.84755 89.0115 8.27773 87.4754 8.80538C84.1178 9.95813 80.9432 11.5135 77.8345 13.2116C74.1504 15.2247 70.3287 16.9091 66.2748 18.0372C62.7944 19.0059 59.2598 19.5385 55.6367 19.2805C51.8995 19.0138 48.4604 17.8876 45.4136 15.6648C45.2523 15.5467 45.1618 15.5821 45.0291 15.6943C44.1194 16.4658 43.2075 17.2344 42.2955 18.0032C41.8773 18.3557 41.4591 18.7082 41.0411 19.061C40.9956 19.0993 40.9523 19.1398 40.9041 19.1849C40.8804 19.207 40.8556 19.2303 40.8287 19.2549C40.8601 19.2777 40.8877 19.2985 40.9131 19.3177C40.9568 19.3506 40.9941 19.3787 41.0332 19.4036C43.1585 20.7325 45.4382 21.7278 47.8536 22.3647C51.874 23.4249 55.9209 23.3422 59.9639 22.4484C62.9724 21.7829 65.8598 20.7503 68.6509 19.4666C70.7735 18.4903 72.878 17.4754 74.9827 16.4603C75.898 16.0189 76.8134 15.5774 77.7302 15.1391C80.3403 13.8919 82.979 12.7135 85.7455 11.8482C87.3308 11.3521 88.9348 10.9583 90.6126 10.9819C92.1095 11.0026 93.5719 11.2467 95.0097 11.6503C97.2205 12.2705 99.3173 13.1791 101.351 14.2285C103.829 15.5083 106.298 16.8097 108.747 18.1465C112.629 20.2659 116.735 21.7455 121.073 22.5921C124.378 23.2379 127.719 23.2861 131.066 23.1601C131.701 23.1362 132.334 23.0574 132.966 22.9786C133.193 22.9503 133.42 22.922 133.647 22.8963C134.004 22.8549 134.313 22.7024 134.601 22.4759C135.414 21.8384 136.233 21.2096 137.052 20.581C137.359 20.3449 137.667 20.1087 137.974 19.8722C138.326 19.6012 138.678 19.33 139.03 19.0587Z" fill="#20398D"/>
</svg>
