<svg width="339" height="183" viewBox="0 0 339 183" fill="none" xmlns="http://www.w3.org/2000/svg">
<g clip-path="url(#clip0_198_24105)">
<path d="M302 0H36C32.6863 0 30 2.6863 30 6V146C30 149.314 32.6863 152 36 152H302C305.314 152 308 149.314 308 146V6C308 2.68629 305.314 0 302 0Z" fill="#F8FAFA"/>
<path d="M51.8298 -7.62939e-05C51.925 -7.62939e-05 52.0012 34.0603 52.0012 76.0615C52.0012 118.063 51.925 152.123 51.8298 152.123C51.7346 152.123 51.6648 118.074 51.6648 76.0615C51.6648 34.0492 51.741 -7.62939e-05 51.8298 -7.62939e-05Z" fill="#74777F"/>
<path d="M309.348 21.185C309.348 21.2801 246.802 21.3562 169.674 21.3562C92.546 21.3562 30 21.2801 30 21.185C30 21.0898 92.5255 21.02 169.674 21.02C246.822 21.02 309.348 21.0961 309.348 21.185Z" fill="#74777F"/>
<path opacity="0.1" d="M30.5457 6.03492C30.5457 2.72121 33.2319 0.0349121 36.5457 0.0349121H303.481C306.795 0.0349121 309.481 2.7212 309.481 6.03491V20.3349H30.5457V6.03492Z" fill="#0058CA"/>
<path opacity="0.1" d="M30.5457 6.03491C30.5457 2.7212 33.2319 0.0349121 36.5457 0.0349121H50.8553V152.285H36.5457C33.2319 152.285 30.5457 149.599 30.5457 146.285V6.03491Z" fill="#0058CA"/>
<rect opacity="0.2" x="61.01" y="48.2473" width="24.4273" height="7.6125" rx="3.80625" fill="#D8DADB"/>
<rect opacity="0.2" x="61.01" y="83.7725" width="24.4273" height="7.6125" rx="3.80625" fill="#D8DADB"/>
<rect opacity="0.2" x="61.01" y="119.297" width="24.4273" height="7.6125" rx="3.80625" fill="#D8DADB"/>
<rect opacity="0.2" x="148.528" y="118.548" width="47.4273" height="7.6125" rx="3.80625" fill="#D8DADB"/>
<rect opacity="0.2" x="259.383" y="118.548" width="47.4273" height="7.6125" rx="3.80625" fill="#D8DADB"/>
<rect opacity="0.2" x="203.955" y="118.548" width="47.4273" height="7.6125" rx="3.80625" fill="#D8DADB"/>
<rect opacity="0.2" x="93.1006" y="118.548" width="47.4273" height="7.6125" rx="3.80625" fill="#D8DADB"/>
<rect opacity="0.2" x="93.1006" y="83.3225" width="47.4273" height="7.6125" rx="3.80625" fill="#D8DADB"/>
<rect opacity="0.2" x="93.1006" y="48.0974" width="47.4273" height="7.6125" rx="3.80625" fill="#D8DADB"/>
<rect opacity="0.2" x="148.528" y="48.0974" width="47.4273" height="7.6125" rx="3.80625" fill="#D8DADB"/>
<rect opacity="0.2" x="203.955" y="48.0974" width="47.4273" height="7.6125" rx="3.80625" fill="#D8DADB"/>
<rect opacity="0.2" x="203.955" y="83.3225" width="47.4273" height="7.6125" rx="3.80625" fill="#D8DADB"/>
<rect opacity="0.2" x="259.383" y="48.0974" width="47.4273" height="7.6125" rx="3.80625" fill="#D8DADB"/>
<rect opacity="0.3" x="61.01" y="30.4849" width="24.4273" height="7.6125" rx="3.80625" fill="#D8DADB"/>
<rect opacity="0.3" x="61.01" y="66.01" width="24.4273" height="7.6125" rx="3.80625" fill="#D8DADB"/>
<rect opacity="0.3" x="61.01" y="101.535" width="24.4273" height="7.6125" rx="3.80625" fill="#D8DADB"/>
<rect opacity="0.3" x="61.01" y="137.06" width="24.4273" height="7.6125" rx="3.80625" fill="#D8DADB"/>
<rect opacity="0.3" x="148.528" y="136.16" width="47.4273" height="7.6125" rx="3.80625" fill="#D8DADB"/>
<rect opacity="0.3" x="259.383" y="136.16" width="47.4273" height="7.6125" rx="3.80625" fill="#D8DADB"/>
<rect opacity="0.3" x="203.955" y="136.16" width="47.4273" height="7.6125" rx="3.80625" fill="#D8DADB"/>
<rect opacity="0.3" x="93.1006" y="136.16" width="47.4273" height="7.6125" rx="3.80625" fill="#D8DADB"/>
<rect opacity="0.3" x="93.1006" y="100.935" width="47.4273" height="7.6125" rx="3.80625" fill="#D8DADB"/>
<rect opacity="0.3" x="93.1006" y="65.71" width="47.4273" height="7.6125" rx="3.80625" fill="#D8DADB"/>
<rect opacity="0.3" x="148.528" y="65.71" width="47.4273" height="7.6125" rx="3.80625" fill="#D8DADB"/>
<rect opacity="0.3" x="203.955" y="65.71" width="47.4273" height="7.6125" rx="3.80625" fill="#D8DADB"/>
<rect opacity="0.3" x="203.955" y="100.935" width="47.4273" height="7.6125" rx="3.80625" fill="#D8DADB"/>
<rect opacity="0.3" x="259.383" y="65.71" width="47.4273" height="7.6125" rx="3.80625" fill="#D8DADB"/>
<rect opacity="0.2" x="148.528" y="83.3225" width="47.4273" height="7.6125" rx="3.80625" fill="#D8DADB"/>
<rect opacity="0.3" x="148.528" y="100.935" width="47.4273" height="7.6125" rx="3.80625" fill="#D8DADB"/>
<rect opacity="0.3" x="259.383" y="100.935" width="47.4273" height="7.6125" rx="3.80625" fill="#D8DADB"/>
<rect opacity="0.3" x="148.528" y="30.4849" width="47.4273" height="7.6125" rx="3.80625" fill="#D8DADB"/>
<rect opacity="0.3" x="259.383" y="30.4849" width="47.4273" height="7.6125" rx="3.80625" fill="#D8DADB"/>
<rect opacity="0.3" x="93.1006" y="30.4849" width="47.4273" height="7.6125" rx="3.80625" fill="#D8DADB"/>
<rect opacity="0.3" x="203.955" y="30.4849" width="47.4273" height="7.6125" rx="3.80625" fill="#D8DADB"/>
<rect opacity="0.2" x="259.383" y="83.3225" width="47.4273" height="7.6125" rx="3.80625" fill="#D8DADB"/>
<path d="M243.899 182.207H92.4147C92.4147 182.207 90.6313 146.581 122.118 144.208C122.118 144.208 127.335 114.082 162.508 113.923C204.689 113.739 205.209 150.431 205.209 150.431C205.209 150.431 239.742 147.177 243.925 182.207" fill="#F2F4F4"/>
<path d="M243.899 182.207C243.899 182.207 243.899 182.125 243.848 181.953C243.798 181.782 243.779 181.528 243.722 181.199C243.664 180.869 243.607 180.45 243.525 179.93C243.45 179.358 243.344 178.79 243.207 178.23C243.068 177.595 242.909 176.878 242.731 176.092C242.554 175.305 242.262 174.481 241.995 173.554C241.729 172.628 241.322 171.708 240.942 170.693L240.243 169.164C240.123 168.904 239.996 168.638 239.875 168.372L239.437 167.579C239.133 167.052 238.866 166.481 238.504 165.948L237.426 164.299L236.156 162.662C235.712 162.117 235.211 161.596 234.728 161.044C232.547 158.736 230.015 156.785 227.226 155.265C224.062 153.528 220.66 152.262 217.129 151.51C215.216 151.094 213.278 150.806 211.328 150.647C209.289 150.458 207.24 150.429 205.197 150.558H205.051V150.412C204.946 148.276 204.65 146.153 204.168 144.069C203.689 141.906 203.04 139.785 202.226 137.725C200.537 133.349 198.025 129.337 194.826 125.906C193.143 124.129 191.275 122.536 189.254 121.155C188.746 120.793 188.206 120.489 187.68 120.153L186.88 119.664L186.048 119.226C185.49 118.941 184.938 118.63 184.367 118.364L182.628 117.66C182.05 117.387 181.441 117.196 180.838 116.981C180.235 116.765 179.645 116.53 179.023 116.346C177.785 116.017 176.554 115.604 175.272 115.382L173.368 114.983L171.426 114.703C170.156 114.481 168.817 114.393 167.503 114.291C164.784 114.105 162.057 114.078 159.335 114.209L157.323 114.38L156.327 114.469L155.33 114.608L153.356 114.9L151.414 115.306C148.865 115.851 146.374 116.639 143.976 117.66C141.645 118.67 139.421 119.912 137.337 121.364C133.368 124.178 129.995 127.748 127.411 131.87C126.182 133.808 125.12 135.847 124.237 137.966C123.372 139.986 122.705 142.085 122.244 144.234V144.341H122.137C118.281 144.592 114.498 145.506 110.954 147.044C107.764 148.442 104.881 150.453 102.468 152.963C100.36 155.175 98.5869 157.684 97.2065 160.41C96.0291 162.721 95.0852 165.144 94.3885 167.642C93.3987 171.139 92.7797 174.73 92.5416 178.357C92.4591 179.625 92.4337 180.571 92.4273 181.218C92.421 181.865 92.4273 182.201 92.4273 182.201C92.4273 182.201 92.4273 181.871 92.3829 181.218C92.3385 180.564 92.3829 179.606 92.4591 178.35C92.6646 174.713 93.2582 171.109 94.2298 167.598C94.9209 165.086 95.8585 162.649 97.0287 160.321C98.4072 157.573 100.18 155.04 102.29 152.804C104.724 150.278 107.628 148.252 110.839 146.841C114.408 145.282 118.219 144.353 122.105 144.094L121.978 144.208C122.435 142.034 123.103 139.91 123.971 137.864C124.855 135.73 125.916 133.674 127.144 131.717C129.744 127.561 133.142 123.961 137.14 121.123C139.243 119.658 141.486 118.404 143.836 117.38C146.252 116.341 148.762 115.536 151.332 114.976L153.286 114.57L155.273 114.278L156.276 114.132L157.279 114.05L159.303 113.872C162.04 113.741 164.782 113.769 167.516 113.955C168.836 114.056 170.156 114.151 171.457 114.367L173.412 114.653L175.316 115.052C176.585 115.281 177.855 115.687 179.086 116.023C179.721 116.201 180.311 116.442 180.92 116.657C181.53 116.873 182.139 117.07 182.716 117.342L184.474 118.11C185.052 118.376 185.604 118.694 186.169 118.979L187.007 119.417L187.813 119.918C188.346 120.254 188.892 120.552 189.406 120.92C191.445 122.32 193.33 123.932 195.029 125.729C198.258 129.19 200.792 133.239 202.493 137.655C203.312 139.741 203.965 141.887 204.448 144.075C204.924 146.171 205.217 148.304 205.324 150.45L205.165 150.311C207.223 150.184 209.288 150.22 211.34 150.419C213.301 150.59 215.247 150.893 217.167 151.326C220.719 152.092 224.141 153.375 227.321 155.132C230.125 156.67 232.668 158.642 234.855 160.975C235.344 161.533 235.845 162.059 236.283 162.611L237.552 164.267C237.921 164.832 238.276 165.39 238.631 165.929C238.987 166.468 239.266 167.039 239.558 167.572L239.99 168.365L240.358 169.164L241.05 170.706C241.43 171.727 241.798 172.679 242.09 173.586L242.814 176.124C242.979 176.91 243.131 177.627 243.271 178.268C243.411 178.908 243.499 179.479 243.569 179.974C243.639 180.469 243.696 180.881 243.741 181.243C243.785 181.605 243.823 181.827 243.848 182.004C243.874 182.182 243.899 182.207 243.899 182.207Z" fill="#C4C6CF"/>
<path d="M160.668 79.6541L132.329 105.321H149.44V141.639H160.027H161.309H171.895V105.321H189.006L160.668 79.6541Z" fill="white"/>
<path opacity="0.2" d="M160.668 79.6541L132.33 105.321H149.44V141.639H160.027H161.309H171.895V105.321H189.006L160.668 79.6541Z" fill="#0058CA"/>
<path d="M140.561 129.237C150.519 126.731 156.987 129.541 161.588 135.98C165.529 129.205 174.618 127.346 181.898 130.271L186.474 147.602L158.599 151.25L135.3 146.98L140.561 129.237Z" fill="#F2F4F4"/>
<path d="M179.689 129.713C179.689 129.744 179.137 129.522 178.128 129.249C176.697 128.881 175.215 128.75 173.742 128.862C172.723 128.931 171.713 129.101 170.727 129.37C169.6 129.697 168.512 130.148 167.484 130.715C165.096 132.008 163.147 133.982 161.886 136.386L161.753 136.653L161.594 136.392L161.01 135.447C160.203 134.222 159.22 133.124 158.091 132.187C157.036 131.317 155.876 130.584 154.638 130.004C152.542 129.004 150.259 128.453 147.936 128.387C146.368 128.333 144.802 128.519 143.29 128.939C142.23 129.262 141.659 129.497 141.646 129.465C141.774 129.386 141.91 129.322 142.053 129.275C142.446 129.1 142.848 128.948 143.259 128.818C144.775 128.354 146.357 128.139 147.942 128.184C151.725 128.252 155.374 129.593 158.3 131.99C159.455 132.945 160.462 134.065 161.29 135.314L161.886 136.285H161.594C162.882 133.822 164.884 131.805 167.338 130.499C169.302 129.413 171.488 128.79 173.729 128.678C175.228 128.587 176.731 128.754 178.172 129.173C178.56 129.284 178.94 129.422 179.308 129.586C179.439 129.614 179.567 129.657 179.689 129.713Z" fill="#C4C6CF"/>
<path d="M338.089 182.315C338.089 182.41 262.399 182.48 169.052 182.48C75.7045 182.48 0 182.41 0 182.315C0 182.22 75.6756 182.15 169.052 182.15C262.428 182.15 338.089 182.226 338.089 182.315Z" fill="#C4C6CF"/>
</g>
<defs>
<clipPath id="clip0_198_24105">
<rect width="339" height="183" fill="white"/>
</clipPath>
</defs>
</svg>
